<?xml version="1.0" standalone="no"?>
<!DOCTYPE svg PUBLIC "-//W3C//DTD SVG 1.1//EN" "http://www.w3.org/Graphics/SVG/1.1/DTD/svg11.dtd" >
<svg xmlns="http://www.w3.org/2000/svg">
<metadata></metadata>
<defs>
<font id="geoma_regular_demoregular" horiz-adv-x="1263" >
<font-face units-per-em="2048" ascent="1638" descent="-410" />
<missing-glyph horiz-adv-x="502" />
<glyph unicode="&#xd;" horiz-adv-x="200" />
<glyph horiz-adv-x="200" />
<glyph horiz-adv-x="200" />
<glyph unicode=" "  horiz-adv-x="502" />
<glyph unicode="&#x09;" horiz-adv-x="502" />
<glyph unicode="&#xa0;" horiz-adv-x="502" />
<glyph unicode="!" horiz-adv-x="402" d="M90 101q0 -42 30 -72q30 -29 72 -29h15q42 0 72 29q30 30 30 72t-30 71q-30 30 -72 30h-15q-42 0 -72 -30q-30 -29 -30 -71zM97 503q0 -42 29 -72q30 -29 72 -29t71 29q30 30 30 72v860q0 42 -30 72q-29 30 -71 30t-72 -30q-29 -30 -29 -72v-860z" />
<glyph unicode="&#x22;" horiz-adv-x="700" d="M100 1173l30 -190q6 -42 20 -72q19 -30 51 -30t52 30q14 30 19 72l30 190v189q0 42 -29 72q-30 30 -72 30t-71 -30q-30 -30 -30 -72v-189zM398 1172l30 -189q6 -42 20 -72q19 -30 51 -30t52 30q14 30 19 72l30 189v190q0 42 -29 72q-30 30 -72 30t-71 -30 q-30 -30 -30 -72v-190z" />
<glyph unicode="#" horiz-adv-x="1460" d="M85 518q0 -42 30 -72q29 -30 71 -30h137l-99 -281q-14 -39 4 -77t58 -52q16 -6 33 -6q72 0 96 68l123 348h159l-99 -281q-14 -39 4 -77t58 -52q16 -6 33 -6q72 0 96 68l123 348h332q42 0 72 30q29 30 29 72q0 41 -29 71q-30 30 -72 30h-261l81 222h208q42 0 72 29 q29 30 29 72t-29 71q-30 30 -72 30h-136l100 287q14 40 -4 77q-18 38 -57 52q-40 14 -78 -4q-37 -18 -51 -57l-125 -355h-159l100 287q14 40 -4 77q-18 38 -57 52q-40 14 -78 -4q-37 -18 -51 -57l-125 -355h-333q-42 0 -71 -30q-30 -29 -30 -71t30 -72q29 -29 71 -29h261 l-80 -222h-209q-42 0 -71 -30q-30 -30 -30 -71zM609 619l81 222h159l-80 -222h-160z" />
<glyph unicode="$" horiz-adv-x="1034" d="M100 1048q0 -182 103 -283q73 -71 213 -111v-426q-86 45 -108 140q-10 41 -45 63q-36 22 -77 12q-40 -9 -62 -45q-23 -36 -13 -76q27 -116 110 -199q82 -82 195 -110v-73q0 -42 29 -72q30 -29 72 -29t71 29q30 30 30 72v73q137 35 226 146q90 113 90 258q0 182 -103 283 q-73 72 -213 111v426q62 -33 92 -95q18 -38 58 -52q39 -14 77 5q38 18 52 58q13 39 -5 77q-84 174 -274 222v73q0 42 -30 72q-29 29 -71 29t-72 -29q-29 -30 -29 -72v-73q-138 -34 -226 -146q-90 -113 -90 -258zM302 1048q0 128 114 189v-371q-62 24 -87 62q-27 41 -27 120z M618 228v371q61 -23 86 -62q27 -41 27 -120q0 -128 -113 -189z" />
<glyph unicode="%" horiz-adv-x="1379" d="M50 1137q0 131 93 223q93 93 224 93t224 -93q93 -92 93 -223t-93 -224t-224 -93t-224 93t-93 224zM164 82q-8 41 16 76l852 1262q23 35 64 43t76 -16q35 -23 43 -64t-16 -76l-852 -1262q-30 -45 -84 -45q-30 0 -56 17q-35 24 -43 65zM253 1137q0 -48 33 -81 q34 -34 81 -34t81 34q33 33 33 81q0 47 -33 80q-34 34 -81 34t-81 -34q-33 -33 -33 -80zM695 317q0 131 93 224q93 92 224 92t224 -92q93 -93 93 -224t-93 -224t-224 -93t-224 93t-93 224zM898 317q0 -48 33 -81q34 -34 81 -34t81 34q33 33 33 81q0 47 -33 80q-34 34 -81 34 t-81 -34q-33 -33 -33 -80z" />
<glyph unicode="&#x26;" horiz-adv-x="1363" d="M100 425q0 -223 163 -386t386 -163q236 0 391 152q141 138 154 327q11 152 -71 261q53 18 92 50q90 73 98 204v5q0 131 -82 210q-75 72 -182 72q-101 0 -175 -66q-82 -74 -82 -193q0 -32 22 -54t54 -22q31 0 54 22q22 22 22 54q0 56 38 85q29 22 67 22q46 0 76 -29 q35 -34 35 -99q-4 -63 -41 -93q-69 -56 -238 -30q-126 25 -197 12q-130 -14 -218 -109q-89 -95 -89 -221q0 -117 83 -200t200 -83q118 0 207 82q88 81 88 190q0 31 -22 54q-22 22 -54 22q-31 0 -54 -22q-22 -23 -22 -54q0 -46 -44 -83t-99 -37t-93 38t-38 93q0 73 54 125 q51 47 119 53l8 2q42 8 143 -12q1 0 3 -1h1q120 -16 164 -110q27 -57 22 -128q-10 -135 -110 -231q-112 -106 -284 -106q-159 0 -278 119t-119 278q0 146 90 255q89 109 226 131q30 5 48 28q19 24 16 53q-2 30 -24 50t-52 20h-57q-83 0 -148 68q-64 68 -64 156q0 93 62 158 q62 66 150 66q119 0 203 -118q18 -26 49 -31q32 -5 57 13q26 18 31 50q5 31 -13 56q-130 182 -327 182q-151 0 -258 -110q-106 -110 -106 -266q0 -97 50 -185q49 -85 131 -136q-101 -75 -158 -190q-58 -116 -58 -250z" />
<glyph unicode="'" horiz-adv-x="402" d="M100 1173l30 -190q6 -42 20 -72q19 -30 51 -30t52 30q14 30 19 72l30 190v189q0 42 -29 72q-30 30 -72 30t-71 -30q-30 -30 -30 -72v-189z" />
<glyph unicode="(" horiz-adv-x="778" d="M100 584q0 -475 406 -855q29 -27 69 -27q44 0 74 32q29 30 27 72q-1 42 -32 71q-342 320 -341 707q0 387 341 707q31 28 32 70q2 42 -27 73q-28 30 -70 32q-42 1 -73 -28q-406 -379 -406 -854z" />
<glyph unicode=")" horiz-adv-x="778" d="M100 -194q-2 -42 27 -72q30 -32 74 -32q40 0 69 27q406 380 406 855t-406 854q-31 29 -73 28q-42 -2 -70 -32q-29 -31 -27 -73q1 -42 32 -70q341 -320 341 -707q1 -387 -341 -707q-31 -29 -32 -71z" />
<glyph unicode="*" horiz-adv-x="1040" d="M100 1086q0 -42 30 -72q29 -29 71 -29h143l-71 -124q-21 -37 -10 -77q11 -41 47 -62q23 -13 50 -13q59 0 88 50l72 125l71 -125q30 -50 88 -50q27 0 51 13q36 21 47 62q11 40 -10 77l-72 124h143q42 0 72 29q30 30 30 72t-30 72q-30 29 -72 29h-143l72 124q21 37 10 77 q-11 41 -47 61q-37 21 -77 11q-41 -11 -62 -48l-71 -124l-72 124q-21 37 -61 48q-41 10 -77 -11q-36 -20 -47 -61q-11 -40 10 -77l71 -124h-143q-42 0 -71 -29q-30 -30 -30 -72z" />
<glyph unicode="+" horiz-adv-x="1669" d="M200 727q0 -42 30 -71q29 -30 71 -30h432v-432q0 -42 30 -71q29 -30 71 -30t72 30q29 29 29 71v432h432q42 0 72 30q30 29 30 71t-30 72t-72 30h-432v432q0 41 -29 71q-30 30 -72 30t-71 -30q-30 -30 -30 -71v-432h-432q-42 0 -71 -30q-30 -30 -30 -72z" />
<glyph unicode="," horiz-adv-x="419" d="M100 102q0 -42 30 -71q18 -18 41 -25q-11 -94 -56 -164q-9 -19 4 -42t42.5 -25.5t46.5 15.5q109 176 111 305v7q0 42 -30 72q-30 29 -72 29h-15q-42 0 -72 -29q-30 -30 -30 -72z" />
<glyph unicode="-" horiz-adv-x="969" d="M50 727q0 -42 30 -71q29 -30 71 -30h666q42 0 72 30q30 29 30 71t-30 72t-72 30h-666q-42 0 -71 -30q-30 -30 -30 -72z" />
<glyph unicode="." horiz-adv-x="1547" d="M100 -282v1710h1335v-1710h-1335zM135 -242h1264v1640h-1264v-1640zM199 438q18 24 50 24h9q28 -5 28 -40q0 -34 -33 -49q-12 -5 -27 -7v-37h-1q-5 0 -14 3v34h-5l-5 1q0 11 5 19h5q0 41 -6 41q-6 7 -6 11zM211 -108q0 5 11 16h3q8 -18 30 -18q18 0 18 20q0 15 -21 18 q-27 0 -32 12q-4 8 -4 12v8q0 34 42 34q24 -5 24 -21v-1q-1 -2 -12 -9h-3q0 7 -13 8h-1q-13 0 -20 -10v-4q0 -6 31 -6q27 -12 27 -38v-5q0 -28 -22 -38q-5 -3 -10 -3h-9q-23 0 -39 25zM224 435q1 -35 1 -47q1 0 1 -2q29 6 37 17q8 10 8 18q0 18 -15 21h-6q-26 -3 -26 -7z M288 374q0 40 32 53l11 1q23 -4 23 -22v-6q0 -20 -39 -36h-10q0 -11 17 -16q11 0 21 18h4q8 -12 8 -15q-17 -22 -30 -22h-7q-26 0 -30 45zM296 -16h15v9q0 46 5 46l15 -5q-2 -23 -2 -36v-14q13 3 15 3q2 -20 2 -24h-2q-9 -1 -15 -1q3 -63 5 -91q-12 -2 -17 -2v1q-5 61 -5 88 l-2 2h-14v24zM305 385q19 0 33 18v2q-7 2 -9 2q-16 0 -24 -19v-3zM325 911v56h9q0 -72 140 -84h177q66 0 66 -65v-103q0 -83 -103 -83h-158q-131 120 -131 279zM350 -11q17 -5 17 -6v-20q0 -67 12 -67h5q17 19 24 55q5 10 6 38h2q15 -2 15 -6q-3 -42 -3 -59v-10q0 -10 5 -20 q0 -6 -10 -18q-12 12 -12 25h-1q-11 -29 -28 -29h-3q-29 0 -29 93v24zM352 146v4q0 58 45 79l7 2h10q14 0 23 -23q-6 -6 -6 -9h-3q-9 15 -21 15q-17 0 -35 -26q-9 -19 -9 -34v-5q0 -29 24 -35q2 -1 8 -1q31 3 31 20v10q-4 3 -12 3h-10v17q28 0 33 -9q2 -7 2 -9 q-2 -25 -2 -29q0 -11 4 -26q-1 0 -8 -5h-1q-4 0 -6 22q-6 -8 -29 -12h-2q-38 0 -43 51zM353 1088v10q147 270 364 270v-242h-261q-54 0 -103 -38zM357 413q12 2 15 2v-1q0 -4 3 -19h1q10 43 28 43q19 0 28 -49q-1 0 -15 -4q-6 33 -13 33q-17 -9 -20 -75q1 -14 1 -15 q-10 -2 -15 -2q-13 69 -13 87zM409 986v37q3 19 19 19h289v-94q-35 19 -75 19h-214q-19 0 -19 19zM432 347v1q1 3 9 11h1q12 -15 28 -15q14 4 14 16q-4 15 -21 15q-28 0 -28 22v3q0 30 37 30q18 -5 18 -17v-1q0 -2 -10 -8h-1q-4 7 -13 7q-13 0 -16 -11q0 -5 29 -6 q20 -11 20 -34q0 -25 -20 -34l-8 -2h-5q-24 0 -34 23zM437 -63q0 48 34 58h4q14 0 29 -16v1q0 8 3 65q1 0 17 -4q-4 -38 -5 -92q0 -34 10 -69q-11 -10 -12 -10h-1q-3 0 -6 13h-2q0 -8 -21 -16q-33 0 -47 42q-3 12 -3 28zM446 132v15q0 33 26 46q5 2 15 2q20 -4 20 -20 q1 0 1 -2q0 -23 -35 -36q-5 -3 -15 -3v-1q0 -11 17 -17h1q10 0 23 16h3q0 -2 6 -9v-1q-14 -22 -29 -22h-6q-19 0 -27 32zM454 -64v-3q0 -34 30 -40h3q12 0 15 26v3q0 36 -21 48l-6 1h-2q-17 0 -19 -35zM457 150q23 0 39 22q-2 6 -11 6h-3q-19 0 -25 -28zM501 364q0 50 25 65 q2 1 11 3q20 0 33 -32q2 -9 2 -17v-3q0 -36 -35 -53q-5 -1 -9 -1q-27 4 -27 38zM513 172v16l11 1h2v18q0 27 3 27q8 -2 10 -2q-2 -29 -2 -42h2l12 2v-17q-1 0 -14 -2l4 -74l-2 -2h-8q-3 29 -5 75h-13zM516 365q2 -18 12 -18h3q24 7 26 35v3q-6 26 -20 26h-2q-13 0 -18 -32 q-1 -7 -1 -14zM534 22q2 14 12 14q9 0 11 -14v-1q0 -11 -8 -16h-7q-8 5 -8 17zM537 -10h12l6 -1q0 -3 -1 -8q1 -67 4 -109h-18l-1 8q-2 68 -2 110zM566 -76q0 51 30 69q10 2 11 2q25 0 41 -38q2 -11 2 -17v-9q0 -40 -39 -60q-4 -2 -13 -2q-27 0 -32 41v14zM567 538v10 q132 0 187 56h9q61 -56 187 -56v-10q-108 -37 -187 -37h-9q-80 0 -187 37zM575 409q7 2 14 2q3 -17 3 -20h1q7 41 21 41q19 0 36 -89q1 0 1 -7q-8 -7 -12 -7q-15 62 -23 80q-9 -13 -18 -70q-1 0 -5 -10h-7q-7 0 -9 57q-2 14 -2 23zM583 -82q0 -22 15 -25h4q15 0 29 29 q2 4 2 9v9q-7 31 -24 31h-2q-21 0 -24 -53zM592 154v17q6 0 10 2q-3 21 -3 52q3 29 17 29h2q13 0 15 -34v-3l-6 -1h-2q-3 21 -8 21q-6 0 -8 -19q1 -2 1 -4q0 -10 2 -39q5 3 9 3h3v-15l-11 -3q5 -57 5 -69h-11q-4 54 -4 65h-1q-5 -2 -10 -2zM634 193q2 0 11 -3q0 -74 14 -74 q19 12 28 66q1 5 1 11h1q3 0 10 -3q-3 -24 -3 -45v-12q0 -9 5 -19q-5 -7 -5 -11h-2q-7 4 -8 26h-2q-4 -15 -19 -29h-9q-20 0 -20 75v10zM652 348v8q0 30 32 35q11 -1 20 -6v1q-4 25 -17 25q-9 0 -18 -10h-3q-2 1 -8 11v2q12 14 23 14h11q27 -9 27 -45q-1 -21 -1 -35l2 -16 q-9 -8 -13 -8h-1l-2 11q-12 -8 -23 -8h-7q-22 3 -22 21zM654 -16h17q0 34 3 55h1l15 -5q-2 -28 -2 -45v-5q14 3 16 3l1 -14v-10q-16 -1 -16 -2q0 -23 5 -90q-13 -2 -17 -2v1q-5 75 -5 90h-18v24zM667 351q0 -3 10 -6q17 0 25 17q-8 7 -19 7q-16 -3 -16 -15v-3zM709 198v39h4 h6v-9q0 -61 3 -132h-11q-2 65 -2 102zM710 -40q0 33 3 33q12 -4 15 -4q-1 -23 -1 -34v-6q0 -33 12 -44h5q22 18 22 72v10h17v-1q8 -89 8 -103v-10q0 -44 -28 -60q-10 -4 -16 -4q-22 0 -29 20q-2 4 -2 9v9q0 15 4 15l14 -7l-1 -8v-4q0 -8 11 -10h4q20 0 25 33q1 4 1 12v20 l-1 13h-1q-10 -30 -29 -30h-2q-23 0 -30 50q-1 8 -1 20v9zM725 462v3v6h3l11 -1v-18q2 -70 2 -126l-7 -2h-6q-3 71 -3 138zM733 232v3q0 2 2 2h1h8v-30q0 -32 3 -111h-11q-3 66 -3 136zM782 411v11q0 25 8 44h4q0 -2 7 -12q-4 -18 -4 -30v-18q0 -44 15 -58h1q21 0 35 117h2 q12 -4 13 -4q-6 -58 -6 -86q0 -31 12 -31q2 -16 2 -20h-8q-13 0 -20 32h-1q-11 -28 -27 -28h-5q-20 0 -27 61q-1 4 -1 22zM789 154v17l11 1q-3 46 -3 52q0 30 19 30q12 0 16 -37l-8 -1h-2v1q0 15 -7 20q-8 -5 -8 -15q0 -8 3 -46v-1q5 3 10 3h1l1 -8v-7q-1 0 -12 -3l2 -3 q0 -12 4 -66h-11q0 6 -4 65q-9 -2 -12 -2zM800 -5h5q11 0 11 -3v-2q9 5 19 5q25 0 33 -44q0 -11 1 -14q-3 -52 -31 -64l-8 -1h-10l1 -8q0 -6 1 -40h-17q-5 132 -5 171zM800 725v317h383l9 -94v-18q0 -185 -131 -298h-167q-94 12 -94 93zM800 1126v242h10q132 0 279 -149 q56 -68 56 -93h-345zM816 -37q0 -3 3 -67l7 -1q22 0 26 42q-3 34 -17 34h-1q-10 0 -18 -8zM833 133v4q0 41 19 57q8 5 14 5q23 0 34 -38v-14q0 -34 -34 -50l-7 -1q-16 0 -24 20q-2 11 -2 17zM843 137q2 -23 15 -23h1q16 0 27 25q3 8 3 11q-6 31 -22 31h-4q-15 0 -20 -44z M871 347v1q8 11 10 11h1q12 -15 27 -15q14 4 14 16t-16 15q-25 0 -30 11q-2 11 -2 14q0 30 37 30q13 0 20 -18v-1q-11 -7 -14 -7q0 6 -11 7q-12 0 -17 -10v-1q0 -5 29 -6q19 -9 19 -36q0 -26 -24 -34h-8q-23 0 -35 23zM873 -81q0 54 30 74q11 2 12 2q23 0 39 -35 q4 -13 4 -24q0 -43 -38 -65q-8 -2 -14 -2q-22 0 -31 27q-2 12 -2 23zM890 -82v-5q0 -17 15 -20h2q16 0 30 26q4 8 4 18q-6 34 -28 34q-19 0 -23 -53zM905 176l8 2h2q3 -16 3 -33h1q9 54 24 54t34 -94h-1q-5 -4 -9 -4q-15 67 -24 79q-7 -7 -23 -79l-2 -1h-4q-6 0 -9 76z M941 373q0 40 30 54l12 1q24 -4 24 -23q0 -29 -42 -41h-7v-2q7 -14 16 -14q10 0 23 18h1q1 0 9 -12q0 -9 -21 -22q-4 -3 -9 -3h-7q-24 0 -29 44zM958 385h3q17 0 31 19q-6 3 -9 3h-3q-16 0 -22 -21v-1zM966 -113q1 17 11 17q9 0 12 -14v-5q-3 -13 -12 -13t-11 15zM979 172 l1 8v8l11 1h1v1q0 21 2 44q3 0 12 -2q-3 -13 -3 -29v-13h3l12 2v-17h-3l-12 -2l5 -74l-5 -2h-6q-3 62 -3 75h-15zM996 -84q0 34 19 64q12 12 18 12h8q6 0 15 -9q11 -12 11 -18q-11 -13 -12 -13q-11 15 -18 15h-2q-12 -5 -18 -28l-4 -21q0 -22 14 -24h3q11 0 34 16h1 q6 -20 6 -22q-25 -18 -47 -18q-23 0 -28 46zM1044 367v9q0 50 40 88q8 2 10 2h6q12 0 28 -28q12 -22 12 -44v-9q0 -37 -40 -58q-7 -3 -14 -3h-7q-30 0 -35 43zM1058 117v8q3 32 30 32q12 0 21 -8v3q0 25 -18 29h-3q-6 0 -17 -8h-1q-1 0 -6 7v2q10 13 19 13h11q16 0 24 -28 q2 -16 3 -18q-1 -6 -3 -26q2 -4 2 -23l-6 -4h-3l-3 12q-10 -11 -25 -11h-4q-21 3 -21 20zM1059 368q0 -21 25 -24q22 0 37 27q5 8 5 18v3q0 27 -26 53q-3 0 -3 2q-17 0 -35 -50q-3 -11 -3 -21v-8zM1068 122q3 -8 11 -8h6q14 0 22 18q-9 8 -17 8h-2q-20 -3 -20 -18zM1076 -76 q0 51 30 69q10 2 11 2q24 0 39 -35q4 -8 4 -19v-8q0 -43 -39 -62q-4 -2 -13 -2q-28 0 -32 41v14zM1092 -82q0 -25 17 -25h3q14 0 29 30q2 6 2 10v7q-8 31 -25 31h-1q-20 0 -25 -53zM1126 172v16l11 1h1l2 45q3 0 12 -2q-2 -18 -2 -34v-8h2l12 2v-8v-9q-1 0 -14 -2v-6 q0 -15 4 -68l-2 -2h-9l-4 75h-13zM1144 409q6 2 15 2q1 -19 1 -22h1q7 43 24 43q16 0 35 -96q-9 -7 -13 -7q-15 66 -24 80q-6 -12 -19 -74q-3 -6 -4 -6h-6q-7 0 -10 80zM1164 -23q13 6 17 6q2 -8 4 -31h2q9 43 24 43q17 0 27 -58h1q8 58 27 58h1q24 0 40 -118h-2 q-11 -5 -13 -5h-1q-19 98 -25 98q-10 -22 -17 -82q-3 -10 -10 -10q-8 0 -11 15q-13 76 -19 76q-16 -58 -16 -93q-10 -4 -17 -4v1zM1223 453q1 12 1 18h1l14 -1q-1 -9 -1 -13q0 -55 3 -131l-11 -2h-4q-2 58 -3 129zM1247 383v17q0 10 2 29q13 -2 14 -2q-1 -18 -1 -26v-9 q2 -35 13 -35h1q18 13 18 67h15v-3q7 -78 7 -88q0 -46 -30 -56h-5h-5q-18 0 -23 19q-1 5 -1 10q0 15 3 15h1q9 -6 12 -6l-1 -9q0 -8 9 -9h2q23 0 23 42q0 5 -1 21h-1q-8 -24 -26 -24h-1q-19 0 -25 47z" />
<glyph unicode="/" horiz-adv-x="1042" d="M115 65q15 -39 54 -56q19 -9 40 -9q66 0 93 61l623 1410q17 38 2 77t-53 56q-39 17 -78 2t-56 -54l-623 -1410q-17 -38 -2 -77z" />
<glyph unicode="0" horiz-adv-x="1227" d="M100 513q0 -212 151 -362q150 -151 363 -151q212 0 363 151q150 150 150 362v440q0 212 -150 362q-151 150 -363 150q-213 0 -363 -150q-151 -150 -151 -362v-440zM302 513v440q0 128 92 219q91 91 220 91q128 0 220 -91q91 -91 91 -219v-440q0 -128 -91 -219 q-92 -91 -220 -91q-129 0 -220 91q-92 91 -92 219z" />
<glyph unicode="1" horiz-adv-x="546" d="M1 1364q0 -42 30 -72q29 -29 71 -29h117q25 0 25 -25v-1136q0 -42 30 -72q29 -30 71 -30t72 30q29 30 29 72v1136q0 94 -66 160q-67 67 -161 67h-117q-42 0 -71 -30q-30 -29 -30 -71z" />
<glyph unicode="2" horiz-adv-x="1232" d="M108 954q0 -42 29 -71q30 -30 72 -30t71 30q30 29 30 71q0 128 91 218q91 91 219 91t218 -91q91 -90 91 -218q0 -114 -74 -200q-47 -55 -207 -146q-59 -34 -86 -51l-364 -226q-52 -32 -75 -85t-10 -109q14 -61 63 -99q48 -38 110 -38h744q42 0 72 30t30 72q0 41 -30 71 t-72 30h-655l294 183q24 14 79 46q190 108 261 190q123 143 123 332q0 212 -151 361q-150 150 -361 150q-212 0 -362 -150q-150 -149 -150 -361z" />
<glyph unicode="3" horiz-adv-x="1120" d="M100 102q0 -42 30 -72q29 -30 71 -30h263q259 0 415 154q141 138 141 335q0 161 -99 289q-107 138 -291 184l250 190q48 36 66 91q18 54 1 107q-16 47 -58 78q-50 37 -122 37h-553q-42 0 -71 -30q-30 -29 -30 -71t30 -72q29 -29 71 -29h477l-398 -302q-58 -44 -34 -113 q23 -69 95 -69h106q173 0 271 -91q86 -80 86 -199q0 -117 -85 -197q-96 -89 -268 -89h-263q-42 0 -71 -30q-30 -30 -30 -71z" />
<glyph unicode="4" horiz-adv-x="1241" d="M55 401q49 -98 159 -98h503v-201q0 -42 30 -72q29 -30 71 -30t72 30q29 30 29 71l1 202h209q42 0 72 30t30 71q0 42 -30 72t-72 30h-209l1 781q0 58 -34 104q-33 46 -87 64q-58 19 -114 1q-56 -19 -88 -67l-529 -808q-59 -89 -14 -180zM261 506l457 697l-1 -697h-456z " />
<glyph unicode="5" horiz-adv-x="1139" d="M100 102q0 -42 30 -72q29 -30 71 -30h342q259 0 415 149q141 134 141 324q0 192 -142 328q-157 149 -418 149h-195v313h509q42 0 72 29q29 30 29 72t-29 71q-30 30 -72 30h-610q-42 0 -72 -30q-29 -29 -29 -71v-515q0 -42 29 -72q30 -29 72 -29h296q172 0 271 -88 q87 -77 87 -187q0 -107 -81 -181q-97 -89 -273 -89h-342q-42 0 -71 -30q-30 -30 -30 -71z" />
<glyph unicode="6" horiz-adv-x="1283" d="M100 540q0 -223 159 -381q158 -159 382 -159t383 159q159 158 159 381q0 219 -154 377q-153 157 -372 163l186 218q27 32 24 74t-35 69t-74 24q-42 -4 -69 -35l-462 -542l-1 -1v-1q-126 -150 -126 -346zM302 540q0 140 100 239q99 99 239 99q141 0 240 -99t99 -239 q0 -139 -99 -238t-240 -99q-140 0 -239 99q-100 99 -100 238z" />
<glyph unicode="7" horiz-adv-x="1051" d="M25 1364q0 -42 30 -72q29 -29 71 -29h654q14 0 22 -12q7 -12 0 -25l-558 -1078q-20 -37 -7 -77t50 -59q22 -12 47 -12q61 0 89 55l559 1078q59 114 -8 223q-66 109 -194 109h-654q-42 0 -71 -30q-30 -29 -30 -71z" />
<glyph unicode="8" horiz-adv-x="1156" d="M100 477q0 -197 140 -337t338 -140q197 0 338 140q140 140 140 337q0 253 -211 395q91 102 91 236q0 148 -105 252q-105 105 -253 105t-253 -105q-105 -104 -105 -252q0 -134 90 -236q-210 -142 -210 -395zM302 477q0 113 81 194q81 80 195 80t194 -80q81 -81 81 -194 t-81 -194q-80 -80 -194 -80t-195 80q-81 81 -81 194zM423 1108q0 64 45 109q46 46 110 46t110 -46q45 -45 45 -109t-45 -109q-46 -45 -110 -45t-110 45q-45 45 -45 109z" />
<glyph unicode="9" horiz-adv-x="1283" d="M100 925q0 -219 154 -376q153 -157 372 -164l-186 -218q-27 -32 -24 -73q3 -42 35 -69q28 -25 66 -25q46 0 77 36l461 541q1 0 1 1q1 1 1 2q126 150 126 345q0 223 -159 382q-159 158 -383 158t-382 -158q-159 -159 -159 -382zM302 925q0 140 100 239q99 99 239 99 q141 0 240 -99t99 -239t-99 -239t-240 -99q-140 0 -239 99q-100 99 -100 239z" />
<glyph unicode=":" horiz-adv-x="419" d="M100 102q0 -42 30 -71q30 -30 72 -30h15q42 0 72 30q30 29 30 71t-30 72q-30 29 -72 29h-15q-42 0 -72 -29q-30 -30 -30 -72zM100 962q0 -42 30 -71q30 -30 72 -30h15q42 0 72 30q30 29 30 71t-30 72q-30 29 -72 29h-15q-42 0 -72 -29q-30 -30 -30 -72z" />
<glyph unicode=";" horiz-adv-x="419" d="M100 102q0 -42 30 -71q18 -18 41 -25q-11 -94 -56 -164q-9 -19 4 -42t42.5 -25.5t46.5 15.5q109 176 111 305v7q0 42 -30 72q-30 29 -72 29h-15q-42 0 -72 -29q-30 -30 -30 -72zM100 962q0 -42 30 -71q30 -30 72 -30h15q42 0 72 30q30 29 30 71t-30 72q-30 29 -72 29h-15 q-42 0 -72 -29q-30 -30 -30 -72z" />
<glyph unicode="&#x3c;" horiz-adv-x="1084" d="M50 666q0 -66 61 -93l773 -419q20 -8 40 -8q67 0 93 61q17 39 1 78q-15 39 -54 55l-597 326l597 327q39 16 54 55q16 39 -1 78q-16 38 -55 54q-39 15 -78 -1l-773 -420q-61 -26 -61 -93z" />
<glyph unicode="=" horiz-adv-x="969" d="M50 497q0 -42 30 -71q29 -30 71 -30h666q42 0 72 30q30 29 30 71t-30 72t-72 30h-666q-42 0 -71 -30q-30 -30 -30 -72zM50 957q0 -42 30 -71q29 -30 71 -30h666q42 0 72 30q30 29 30 71t-30 72t-72 30h-666q-42 0 -71 -30q-30 -30 -30 -72z" />
<glyph unicode="&#x3e;" horiz-adv-x="1084" d="M58 285q-16 -39 1 -78q26 -61 93 -61q20 0 40 8l773 419q61 27 61 93q0 67 -61 93l-773 420q-39 16 -78 1q-39 -16 -55 -54q-17 -39 -1 -78q15 -39 54 -55l597 -327l-597 -326q-39 -16 -54 -55z" />
<glyph unicode="?" horiz-adv-x="1081" d="M100 1025q0 -135 75 -246q24 -35 65 -43t76 16q35 23 43 64q7 42 -16 76q-41 60 -41 133q0 99 70 169q70 69 168 69q99 0 169 -69q69 -70 69 -169q0 -98 -69 -168q-70 -70 -169 -70q-42 0 -71 -29q-30 -30 -30 -72v-255q0 -42 30 -72q29 -30 71 -30t72 30t30 72v166 q147 34 242 153q97 121 97 275q0 182 -129 312q-129 129 -312 129q-182 0 -311 -129q-129 -130 -129 -312zM433 102q0 -42 30 -71q30 -30 72 -30h15q42 0 72 30q30 29 30 71t-30 72q-30 29 -72 29h-15q-42 0 -72 -29q-30 -30 -30 -72z" />
<glyph unicode="@" horiz-adv-x="1660" d="M50 690q0 323 229 551q228 229 551 229t551 -229q229 -228 229 -551q0 -194 -100 -346q-101 -151 -234 -157q-87 -5 -146 51q-50 48 -65 135q-9 49 -8 139q1 15 1 23v150q0 113 -75 177q-65 57 -163 57q-97 0 -163 -57q-75 -64 -75 -177q0 -120 92 -187q101 -75 218 -39 q40 12 77 -7q37 -20 49 -60t-7 -76q-20 -37 -60 -50q-101 -30 -206 -12t-191 81q-82 61 -128 153q-45 91 -45 197q0 203 138 325q124 110 301 110t301 -110q138 -122 138 -325v-150v-26q-2 -94 9 -121q38 8 84 86q56 96 56 216q0 239 -169 409q-170 169 -409 169t-409 -169 q-169 -170 -169 -409q0 -240 169 -410q170 -168 408 -168h1q98 0 190 32q40 14 77 -4q38 -18 52 -57t-4 -77t-58 -52q-125 -44 -257 -44h-1q-322 0 -550 228q-229 228 -229 552z" />
<glyph unicode="A" horiz-adv-x="1337" d="M100 101q0 -41 30 -71q29 -30 71 -30t72 30q29 30 29 71v459h732v-459q0 -41 30 -71q29 -30 71 -30t72 30t30 71v746q0 256 -167 437t-402 181t-401 -181q-167 -181 -167 -437v-746zM302 762v85q0 172 108 294q107 122 258 122q152 0 259 -122t107 -294v-85h-732z" />
<glyph unicode="B" horiz-adv-x="1286" d="M100 101q0 -41 30 -71q29 -30 71 -30h540q184 0 314 131q131 130 131 315q0 216 -171 350q8 8 15 17q97 109 97 264q0 156 -98 266q-109 122 -288 122h-255q-179 0 -287 -121q-98 -110 -99 -266v-977zM302 203v486h439q100 0 171 -72q72 -71 72 -171q0 -101 -72 -172 q-71 -71 -171 -71h-439zM302 891v186q1 75 42 125q49 61 142 61h255q93 0 142 -61q41 -51 41 -125q0 -78 -46 -130q-49 -56 -137 -56h-439z" />
<glyph unicode="C" horiz-adv-x="1385" d="M50 733q0 -303 215 -518q214 -215 517 -215q308 0 523 220q29 29 29 69q0 45 -30 74q-29 29 -69 29h-3q-42 0 -71 -30q-156 -159 -379 -159q-219 0 -374 155q-156 156 -156 375t156 374q155 156 374 156q223 0 379 -160q29 -30 71 -30t72 29t31 71q0 42 -29 72 q-216 220 -524 220q-303 0 -517 -215q-215 -214 -215 -517z" />
<glyph unicode="D" horiz-adv-x="1271" d="M100 102q0 -42 30 -72q29 -30 71 -30h288q303 0 517 215q215 215 215 518t-215 517q-215 215 -519 215q-180 0 -288 -121q-98 -110 -99 -266v-976zM302 203v874q1 74 42 125q49 61 143 61q220 0 376 -156q156 -155 156 -374t-156 -375q-155 -155 -374 -155h-187z" />
<glyph unicode="E" horiz-adv-x="963" d="M100 532q0 -220 156 -376t376 -156h189q42 0 72 30t30 72q0 41 -30 71t-72 30h-189q-137 0 -233 96q-97 97 -97 233v77h444q42 0 72 29q30 30 30 72t-30 72q-30 29 -72 29h-444v122q0 137 97 233q96 97 233 97h189q42 0 72 29q30 30 30 72t-30 71q-30 30 -72 30h-189 q-220 0 -376 -156t-156 -376v-401z" />
<glyph unicode="F" horiz-adv-x="953" d="M100 102q0 -42 30 -72q29 -30 71 -30t72 30q29 30 29 72v507h444q42 0 72 29q30 30 30 72t-30 72q-30 29 -72 29h-444v122q0 137 97 233q96 97 233 97h189q42 0 72 29q30 30 30 72t-30 71q-30 30 -72 30h-189q-220 0 -376 -156t-156 -376v-831z" />
<glyph unicode="G" horiz-adv-x="1536" d="M50 732q0 -303 215 -518q214 -214 517 -214q296 0 500 212t204 520q0 42 -30 72q-29 29 -71 29h-603q-42 0 -71 -29q-30 -30 -30 -72t30 -72q29 -29 71 -29h493q-32 -189 -167 -308q-137 -121 -326 -121q-219 0 -374 155q-156 156 -156 375t156 375q155 155 374 155 q205 0 357 -138q29 -26 67 -26h6q42 2 70 33q26 29 26 67v6q-2 42 -33 70q-210 190 -493 190q-303 0 -517 -214q-215 -215 -215 -518z" />
<glyph unicode="H" horiz-adv-x="1196" d="M120 102q0 -42 30 -72q29 -30 71 -30t72 30q29 30 29 72v529h551v-529q0 -42 30 -72t71 -30q42 0 72 30t30 72v1262q0 42 -30 71q-30 30 -72 30q-41 0 -71 -30q-30 -29 -30 -71v-530h-551v530q0 42 -29 71q-30 30 -72 30t-71 -30q-30 -29 -30 -71v-1262z" />
<glyph unicode="I" horiz-adv-x="462" d="M130 102q0 -42 30 -72q29 -30 71 -30t72 30q29 30 29 72v1262q0 42 -29 71q-30 30 -72 30t-71 -30q-30 -29 -30 -71v-1262z" />
<glyph unicode="J" horiz-adv-x="754" d="M1 102q0 -42 30 -72q29 -30 71 -30q220 0 376 156t156 376v832q0 42 -30 71q-30 30 -71 30q-42 0 -72 -30q-30 -29 -30 -71v-832q0 -136 -96 -233q-97 -96 -233 -96q-42 0 -71 -30q-30 -30 -30 -71z" />
<glyph unicode="K" horiz-adv-x="959" d="M120 102q0 -42 30 -72q29 -30 71 -30t72 30q29 30 29 72v386l455 -454q29 -30 71 -30t72 30q29 30 29 72t-29 71l-556 556l556 555q29 30 29 72t-29 71q-30 30 -72 30t-71 -30l-455 -454v387q0 42 -29 71q-30 30 -72 30t-71 -30q-30 -29 -30 -71v-1262z" />
<glyph unicode="L" horiz-adv-x="1030" d="M120 532q0 -220 156 -376t376 -156h276q41 0 71 30t30 72q0 41 -30 71t-71 30h-276q-137 0 -233 96q-97 97 -97 233v832q0 42 -29 71q-30 30 -72 30t-71 -30q-30 -29 -30 -71v-832z" />
<glyph unicode="M" horiz-adv-x="2081" d="M100 102q0 -42 30 -72q29 -30 71 -30t72 30q29 30 29 72v759q0 166 94 284q93 118 225 118t225 -118t93 -284v-759q0 -42 30 -72t71 -30q42 0 72 30t30 72v759q0 166 93 284t225 118t225 -118q94 -118 94 -284v-759q0 -42 29 -72q30 -30 72 -30t71 30q30 30 30 72v759 q0 250 -153 427q-152 177 -368 177q-263 0 -420 -247q-156 247 -419 247q-178 0 -319 -127v26q0 42 -29 71q-30 30 -72 30t-71 -30q-30 -29 -30 -71v-1262z" />
<glyph unicode="N" horiz-adv-x="1313" d="M100 102q0 -42 30 -72q29 -30 71 -30t72 30q29 30 29 72v766q1 163 104 279q104 116 250 116q147 0 250 -116q104 -116 104 -279v-766q0 -42 30 -72q29 -30 71 -30t72 30t30 72v766q0 247 -164 422q-163 175 -393 175q-199 0 -354 -137v36q0 42 -29 71q-30 30 -72 30 t-71 -30q-30 -29 -30 -71v-1262z" />
<glyph unicode="O" horiz-adv-x="1565" d="M50 733q0 -303 215 -518q214 -215 517 -215t518 215t215 518t-215 517q-215 215 -518 215t-517 -215q-215 -214 -215 -517zM252 733q0 219 156 374q155 156 374 156q220 0 375 -156q155 -155 155 -374t-155 -375q-155 -155 -375 -155q-219 0 -374 155q-156 156 -156 375z " />
<glyph unicode="P" horiz-adv-x="1248" d="M100 102q0 -42 30 -72q29 -30 71 -30t72 30q29 30 29 72v814q0 143 102 245t245 102t245 -102t102 -245t-102 -245t-245 -102q-80 0 -152 35q-21 11 -44 11q-16 0 -33 -6q-40 -14 -58 -51q-10 -22 -10 -45q0 -16 5 -33q14 -39 52 -58q113 -55 240 -55q227 0 388 161 t161 388t-161 388t-388 161q-225 0 -385 -159q-161 -158 -164 -383v-821z" />
<glyph unicode="Q" horiz-adv-x="1565" d="M50 733q0 -276 182 -483q180 -205 449 -243v-99q0 -42 30 -72q29 -29 71 -29t72 29q30 30 30 72v99q268 38 449 243q182 207 182 483q0 303 -215 517q-215 215 -518 215t-517 -215q-215 -214 -215 -517zM252 733q0 219 156 374q155 156 374 156q220 0 375 -156 q155 -155 155 -374q0 -192 -123 -339q-121 -146 -305 -181v128q0 41 -30 71t-72 30t-71 -30q-30 -30 -30 -71v-128q-184 35 -306 181q-123 147 -123 339z" />
<glyph unicode="R" horiz-adv-x="1248" d="M100 102q0 -42 30 -72q29 -30 71 -30t72 30q29 30 29 72v814q0 143 102 245t245 102t245 -102t102 -245t-102 -245t-245 -102q-62 0 -120 22q-21 5 -38 5q-48 0 -74 -34q-25 -35 -25 -68q0 -40 37 -76l475 -394q28 -24 65 -24q47 0 78 37q24 28 24 63q0 5 -1 11 q-4 42 -37 68l-247 205q180 47 295 193q117 149 117 339q0 227 -161 388t-388 161q-225 0 -385 -159q-161 -158 -164 -383v-821z" />
<glyph unicode="S" horiz-adv-x="1106" d="M51 101q0 42 30 72q30 29 72 29h443q118 0 183 57q66 57 69 161v11q0 126 -64 169q-55 36 -243 49q-221 15 -319 69q-172 95 -171 343q2 159 101 276q108 128 275 128h431q42 0 72 -30q29 -29 29 -71t-29 -72q-30 -29 -72 -29h-431q-85 0 -133 -73q-40 -58 -40 -135 q0 -120 64 -159q54 -32 237 -45q226 -16 326 -73q169 -97 169 -346v-17q-4 -186 -129 -301q-125 -114 -325 -114h-443q-42 0 -72 30q-30 29 -30 71z" />
<glyph unicode="T" horiz-adv-x="976" d="M10 1364q0 -42 30 -72q29 -29 71 -29h276v-1161q0 -42 29 -72q30 -30 72 -30t71 30q30 30 30 72v1161h275q42 0 72 29q30 30 30 72t-30 71q-30 30 -72 30h-753q-42 0 -71 -30q-30 -29 -30 -71z" />
<glyph unicode="U" horiz-adv-x="1313" d="M100 598q0 -245 160 -420q163 -178 396 -178q230 0 393 175q164 176 164 423v766q0 42 -30 71q-30 30 -72 30t-71 -30q-30 -29 -30 -71v-766q0 -164 -104 -279q-103 -116 -250 -116q-144 0 -247 112q-107 117 -107 283v766q0 42 -29 71q-30 30 -72 30t-71 -30 q-30 -29 -30 -71v-766z" />
<glyph unicode="V" horiz-adv-x="1145" d="M24 1330l453 -1263q24 -67 95 -67q72 0 96 67l452 1263q7 18 7 35q0 21 -10 42q-18 38 -58 52q-17 6 -34 6q-22 0 -43 -10q-38 -18 -52 -57l-358 -997l-357 997q-14 39 -52 57q-21 10 -43 10q-17 0 -35 -6q-39 -14 -57 -52q-10 -21 -10 -43q0 -17 6 -34z" />
<glyph unicode="W" horiz-adv-x="1994" d="M100 603q0 -243 138 -417q147 -186 361 -186q248 0 398 240q150 -240 398 -240q206 0 352 178q147 177 147 427v759q0 42 -30 71q-30 30 -72 30t-71 -30q-30 -29 -30 -71v-759q0 -167 -87 -284q-87 -118 -209 -118q-123 0 -210 118q-87 117 -87 284v759q0 42 -30 71 q-29 30 -71 30t-72 -30q-29 -29 -29 -71v-759q0 -167 -87 -284q-87 -118 -210 -118q-116 0 -202 109q-95 119 -95 291v761q0 42 -29 71q-30 30 -72 30t-71 -30q-30 -29 -30 -71v-761z" />
<glyph unicode="X" horiz-adv-x="1216" d="M100 102q0 -42 30 -72q29 -30 71 -30t72 30q29 30 29 72v142q0 149 94 253q89 100 212 100q126 0 216 -104q90 -103 90 -249v-142q0 -42 29 -72q30 -30 72 -30t71 30q30 30 30 72v142q0 292 -221 458q221 178 221 492v164q0 42 -30 71q-29 30 -71 30t-72 -30 q-29 -29 -29 -71v-164q0 -163 -90 -279t-216 -116q-121 0 -209 108q-97 118 -97 287v164q0 42 -29 71q-30 30 -72 30t-71 -30q-30 -29 -30 -71v-164q0 -242 142 -415q36 -44 78 -78q-41 -30 -75 -68q-145 -162 -145 -389v-142z" />
<glyph unicode="Y" horiz-adv-x="1116" d="M50 1114q0 -242 142 -415q110 -134 265 -171v-426q0 -42 29 -72q30 -30 72 -30t72 30q29 30 29 72v427q176 42 290 205q117 165 117 380v250q0 42 -30 71q-29 30 -71 30t-72 -30q-29 -29 -29 -71v-250q0 -163 -90 -279t-216 -116q-121 0 -209 108q-97 118 -97 287v250 q0 42 -29 71q-30 30 -72 30t-71 -30q-30 -29 -30 -71v-250z" />
<glyph unicode="Z" horiz-adv-x="1180" d="M74 98q51 -98 161 -98h824q42 0 71 30q30 30 30 72q0 41 -30 71q-29 30 -71 30h-779l806 969q42 50 42 106q0 42 -24 88q-50 99 -161 99h-707q-42 0 -72 -30q-29 -29 -29 -71t29 -72q30 -29 72 -29h662l-806 -970q-41 -50 -41 -106q0 -43 23 -89z" />
<glyph unicode="[" horiz-adv-x="753" d="M100 -200q0 -42 30 -71q29 -30 71 -30l351 1q42 0 72 29q29 30 29 72t-29 72q-30 29 -72 29h-250v1359h250q42 0 72 30q29 30 29 71q0 42 -29 72q-30 30 -72 30h-351q-42 0 -71 -30q-30 -30 -30 -72v-1562z" />
<glyph unicode="\" horiz-adv-x="1042" d="M115 1400q-15 -39 2 -77l623 -1410q27 -61 93 -61q21 0 41 9q38 17 53 56t-2 77l-623 1410q-17 39 -56 54t-77 -2q-39 -17 -54 -56z" />
<glyph unicode="]" horiz-adv-x="753" d="M100 -199q0 -42 29 -72q30 -30 72 -30h351q42 0 71 30q30 30 30 72v1562q0 42 -30 71q-29 30 -71 30l-351 -1q-42 0 -72 -29q-29 -30 -29 -72t29 -72q30 -29 72 -29h250v-1359h-250q-42 0 -72 -30q-29 -30 -29 -71z" />
<glyph unicode="^" horiz-adv-x="1156" d="M50 940q0 -42 30 -72q29 -29 71 -29t72 29l355 354l355 -354q29 -29 71 -29t72 29q30 30 29 72q0 42 -29 72l-427 424q-29 30 -71 30t-72 -30l-426 -424q-30 -30 -30 -72z" />
<glyph unicode="_" horiz-adv-x="1140" d="M-150 -102q0 -42 30 -71q29 -30 71 -30h1237q42 0 72 30q30 29 30 71t-30 72t-72 30h-1237q-42 0 -71 -30q-30 -30 -30 -72z" />
<glyph unicode="`" horiz-adv-x="698" d="M106 1447q-6 -42 19 -75l169 -200q30 -41 81 -41q34 0 61 21q34 25 39 67q6 41 -19 75l-169 199q-30 34 -67 40q-41 6 -75 -20q-33 -25 -39 -66z" />
<glyph unicode="a" horiz-adv-x="1213" d="M50 532q0 -220 156 -376t376 -156q133 0 222 49q37 20 49 60q5 15 5 30q0 24 -13 47q-19 37 -59 49q-9 3 -20 3q-23 0 -58 -11q-65 -23 -126 -24q-137 0 -233 96q-97 97 -97 233t97 232q96 97 233 97q136 0 232 -97q97 -96 97 -232v-430q0 -42 29 -72q30 -30 72 -30 t71 30q30 30 30 72v430q0 220 -156 376q-156 155 -375 155q-220 0 -376 -155q-156 -156 -156 -376z" />
<glyph unicode="b" horiz-adv-x="1213" d="M100 532q0 -220 156 -376t376 -156q219 0 375 156t156 376t-156 376q-156 155 -375 155q-113 0 -215 -45q-39 -17 -54 -56q-7 -18 -7 -36q0 -20 9 -41q17 -39 56 -54q18 -7 36 -7q20 0 41 9q64 28 134 28q136 0 232 -97q97 -96 97 -232t-97 -233q-96 -96 -232 -96 q-137 0 -233 96q-97 97 -97 233v832q0 42 -29 71q-30 30 -72 30t-71 -30q-30 -29 -30 -71v-832z" />
<glyph unicode="c" horiz-adv-x="1025" d="M50 532q0 -220 156 -376t376 -156q218 0 373 153q30 30 30 72t-29 71q-30 30 -72 31q-42 0 -71 -29q-96 -95 -231 -95q-137 0 -233 96q-97 97 -97 233t97 232q96 97 233 97q134 0 230 -94q29 -29 69 -29h3q42 0 71 30q29 29 29 69q0 45 -30 74q-155 152 -372 152 q-220 0 -376 -155q-156 -156 -156 -376z" />
<glyph unicode="d" horiz-adv-x="1213" d="M50 532q0 -220 156 -376t376 -156q219 0 375 156t156 376v832q0 42 -30 71q-29 30 -71 30t-72 -30q-29 -29 -29 -71v-832q0 -136 -97 -233q-96 -96 -232 -96q-137 0 -233 96q-97 97 -97 233t97 232q96 97 233 97q72 0 138 -30q21 -10 43 -10q17 0 34 6q40 15 57 53 q10 21 10 43q0 17 -6 34q-15 39 -53 57q-106 49 -223 49q-220 0 -376 -155q-156 -156 -156 -376z" />
<glyph unicode="e" horiz-adv-x="1144" d="M50 532q0 -220 156 -376t376 -156q259 0 419 205q22 28 22 62q0 7 -1 13q-6 42 -39 67q-28 22 -61 22q-6 0 -13 -1q-42 -5 -68 -38q-99 -127 -259 -127q-137 0 -233 96q-97 97 -97 233t97 232q96 97 233 97q158 0 258 -126l-459 -184q-39 -15 -55 -54q-9 -20 -9 -40 q0 -19 8 -37q25 -64 94 -64q19 0 37 7l566 227q39 15 55 54q9 20 9 40q0 19 -8 37v1v1q-59 153 -196 247q-137 93 -300 93q-220 0 -376 -155q-156 -156 -156 -376z" />
<glyph unicode="f" horiz-adv-x="734" d="M100 102q0 -42 30 -72q29 -30 71 -30t72 30q29 30 29 72v673h311q41 0 71 30q30 29 30 71t-30 72q-30 29 -71 29h-307q16 122 108 203q93 83 218 83q41 0 71 29q30 30 30 72t-30 71q-30 30 -71 30q-220 0 -376 -156t-156 -376v-831z" />
<glyph unicode="g" horiz-adv-x="1213" d="M50 533q0 -220 156 -376t376 -156q116 0 221 48q38 18 52 57q7 18 7 37q0 20 -9 41q-18 38 -57 52q-18 7 -35 7l-43 -10q-64 -29 -136 -29q-137 0 -233 96q-97 97 -97 233t97 232q96 97 233 97q136 0 232 -97q97 -96 97 -232v-430q0 -137 -97 -233q-96 -97 -232 -97 q-135 0 -232 95q-28 29 -68 29h-3q-42 0 -72 -30q-29 -30 -29 -72t30 -71q156 -153 374 -153q219 0 375 156t156 376v430q0 220 -156 376q-156 155 -375 155q-220 0 -376 -155q-156 -156 -156 -376z" />
<glyph unicode="h" horiz-adv-x="1162" d="M100 102q0 -42 30 -72q29 -30 71 -30t72 30q29 30 29 72v430q0 136 87 233q86 96 207 96t207 -97q86 -96 86 -232v-430q0 -42 30 -72t72 -30t71 30q30 30 30 72v430q0 220 -146 376q-145 155 -350 155q-163 0 -294 -103v404q0 42 -29 71q-30 30 -72 30t-71 -30 q-30 -29 -30 -71v-1262z" />
<glyph unicode="i" horiz-adv-x="459" d="M120 1364q0 -42 30 -71q30 -30 72 -30h15q42 0 72 30q30 29 30 71t-30 72q-30 29 -72 29h-15q-42 0 -72 -29q-30 -30 -30 -72zM130 102q0 -42 30 -72q29 -30 71 -30t72 30q29 30 29 72v860q0 42 -29 72q-30 29 -72 29t-71 -29q-30 -30 -30 -72v-860z" />
<glyph unicode="j" horiz-adv-x="480" d="M-273 -329q0 -42 30 -71q29 -30 71 -30q220 0 376 156t156 376v860q0 42 -30 72q-30 29 -71 29q-42 0 -72 -29q-30 -30 -30 -72v-860q0 -137 -96 -233q-97 -97 -233 -97q-42 0 -71 -29q-30 -30 -30 -72zM142 1364q0 -42 30 -71q30 -30 72 -30h15q42 0 72 30q30 29 30 71 t-30 72q-30 29 -72 29h-15q-42 0 -72 -29q-30 -30 -30 -72z" />
<glyph unicode="k" horiz-adv-x="990" d="M100 102q0 -42 30 -72q29 -30 71 -30t72 30q29 30 29 72v542q0 89 64 153t154 64t154 -64t64 -154q0 -78 -85 -129q-77 -48 -179 -48q-74 0 -96 -70q-6 -19 -6 -37q0 -45 43 -76l364 -263q26 -20 59 -20q52 0 82 42q20 27 20 58q0 9 -2 18q-7 41 -40 66l-185 133 q227 107 227 326q0 174 -123 297t-297 123q-117 0 -218 -61v362q0 42 -29 71q-30 30 -72 30t-71 -30q-30 -29 -30 -71v-1262z" />
<glyph unicode="l" horiz-adv-x="462" d="M130 102q0 -42 30 -72q29 -30 71 -30t72 30q29 30 29 72v1262q0 42 -29 71q-30 30 -72 30t-71 -30q-30 -29 -30 -71v-1262z" />
<glyph unicode="m" horiz-adv-x="1838" d="M100 102q0 -42 30 -72q29 -30 71 -30t72 30q29 30 29 72v430q0 136 76 233q76 96 182 96q107 0 182 -97q76 -96 76 -232v-430q0 -42 29 -72q30 -30 72 -30t72 30q29 30 29 72v430q0 136 76 232q75 97 182 97q106 0 182 -97q76 -96 76 -232v-430q0 -42 29 -72 q30 -30 72 -30t71 30q30 30 30 72v430q0 220 -135 376q-135 155 -325 155q-220 0 -359 -199q-139 199 -359 199q-142 0 -258 -92q-4 39 -33 66q-28 26 -68 26q-42 0 -71 -29q-30 -30 -30 -72v-860z" />
<glyph unicode="n" horiz-adv-x="1192" d="M100 102q0 -42 30 -72q29 -30 71 -30t72 30q29 30 29 72v430q0 136 87 233q86 96 207 96t207 -97q86 -96 86 -232v-430q0 -42 30 -72t72 -30t71 30q30 30 30 72v430q0 220 -146 376q-145 155 -350 155q-163 0 -294 -103v2q0 42 -29 72q-30 29 -72 29t-71 -29 q-30 -30 -30 -72v-860z" />
<glyph unicode="o" horiz-adv-x="1183" d="M60 532q0 -220 156 -376t376 -156q219 0 375 156t156 376t-156 376q-156 155 -375 155q-220 0 -376 -155q-156 -156 -156 -376zM262 532q0 136 97 232q96 97 233 97q136 0 232 -97q97 -96 97 -232t-97 -233q-96 -96 -232 -96q-137 0 -233 96q-97 97 -97 233z" />
<glyph unicode="p" horiz-adv-x="1223" d="M100 -300q0 -42 30 -72q29 -29 71 -29t72 29q29 30 29 72v832q0 136 97 232q96 97 233 97q136 0 232 -97q97 -96 97 -232t-97 -233q-96 -96 -232 -96q-76 0 -144 33q-21 10 -43 10q-17 0 -34 -6q-40 -14 -58 -51q-10 -22 -10 -45q0 -16 5 -33q14 -39 52 -58 q109 -53 232 -53q219 0 375 156t156 376t-156 376q-156 155 -375 155q-220 0 -376 -155q-156 -156 -156 -376v-832z" />
<glyph unicode="q" horiz-adv-x="1213" d="M50 533q0 -220 156 -376t376 -156q125 0 236 56q37 18 51 58q5 16 5 32q0 23 -11 45q-18 38 -58 51q-17 6 -33 6q-23 0 -44 -11q-69 -34 -146 -34q-137 0 -233 96q-97 97 -97 233t97 232q96 97 233 97q136 0 232 -97q97 -96 97 -232v-832q0 -42 29 -72q30 -29 72 -29 t71 29q30 30 30 72v832q0 220 -156 376q-156 155 -375 155q-220 0 -376 -155q-156 -156 -156 -376z" />
<glyph unicode="r" horiz-adv-x="770" d="M99 101q0 -42 30 -71q29 -30 71 -30t72 30q29 29 29 71v431q1 136 87 232q86 97 207 97q24 0 48 -5q10 -2 20 -2q30 0 56 18q34 24 42 65q2 10 2 20q0 30 -18 56q-24 35 -65 42q-42 8 -85 8q-163 0 -294 -103v2q0 42 -29 71q-30 30 -72 30t-71 -30q-30 -29 -30 -71v-861z " />
<glyph unicode="s" horiz-adv-x="845" d="M50 101q0 -42 30 -71q29 -30 71 -30h302q159 0 256 110q86 97 86 233q0 138 -87 235q-96 108 -370 108q-85 0 -85 87q0 38 21 62q22 25 64 25h294q41 0 71 30q30 29 30 71t-30 72q-30 29 -71 29h-294q-134 0 -216 -93q-72 -81 -72 -196q0 -114 74 -197q82 -92 214 -92 q201 0 235 -65q19 -35 19 -76q0 -60 -34 -99q-37 -41 -105 -41h-302q-42 0 -71 -30q-30 -30 -30 -72z" />
<glyph unicode="t" horiz-adv-x="773" d="M130 532q0 -220 156 -376t376 -156q41 0 71 30t30 72q0 41 -30 71t-71 30q-137 0 -233 96q-97 97 -97 233v329h330q41 0 71 30q30 29 30 71t-30 72q-30 29 -71 29h-330v330q0 41 -29 71q-30 30 -72 30t-71 -30q-30 -30 -30 -71v-861z" />
<glyph unicode="u" horiz-adv-x="1192" d="M100 532q0 -220 145 -376q146 -156 351 -156q162 0 293 104v-2q0 -42 30 -72t72 -30t71 30q30 30 30 72v860q0 42 -30 72q-29 29 -71 29t-72 -29q-30 -30 -30 -72v-430q0 -136 -86 -233q-86 -96 -207 -96t-208 96q-86 97 -86 233v430q0 42 -29 72q-30 29 -72 29t-71 -29 q-30 -30 -30 -72v-430z" />
<glyph unicode="v" horiz-adv-x="1028" d="M25 997q-7 -18 -7 -36q0 -20 9 -41l395 -861q27 -59 92 -59t92 59l395 861q9 21 9 42q0 17 -6 35q-15 40 -53 57q-21 10 -42 10q-18 0 -35 -7q-40 -15 -57 -53l-303 -660l-303 660q-17 38 -56 53q-18 7 -36 7q-21 0 -42 -10q-38 -17 -52 -57z" />
<glyph unicode="w" horiz-adv-x="1778" d="M70 531q0 -220 135 -376q135 -155 325 -155q220 0 359 199q139 -199 359 -199q190 0 325 155q135 156 135 376v430q0 42 -30 72q-29 30 -71 30t-72 -30q-29 -30 -29 -72v-430q0 -136 -76 -232q-76 -97 -182 -97q-107 0 -182 97q-76 96 -76 232v430q0 42 -29 72 q-30 30 -72 30t-72 -30q-29 -30 -29 -72v-430q0 -136 -76 -232q-75 -97 -182 -97q-106 0 -182 97q-76 96 -76 232v430q0 42 -29 72q-30 30 -72 30t-71 -30q-30 -30 -30 -72v-430z" />
<glyph unicode="x" horiz-adv-x="1115" d="M100 101q0 -42 30 -71q29 -30 71 -30t72 30q29 29 29 71v45q0 108 76 183q74 76 180 76q105 0 180 -76t75 -183v-45q0 -42 29 -71q30 -30 72 -30t72 30q29 29 29 71v45q0 225 -176 364q176 149 176 390v61q0 42 -29 72q-30 29 -72 29t-72 -29q-29 -30 -29 -72v-61 q0 -121 -75 -207t-180 -86q-103 0 -177 82q-79 87 -79 211v61q0 42 -29 72q-30 29 -72 29t-71 -29q-30 -30 -30 -72v-61q0 -202 131 -347q20 -23 45 -44q-25 -19 -42 -37q-134 -135 -134 -326v-45z" />
<glyph unicode="y" horiz-adv-x="1192" d="M100 533q0 -220 145 -376q146 -156 351 -156q162 0 293 104v-3q0 -136 -86 -232q-86 -97 -207 -97q-152 0 -240 140q-22 35 -63 45q-12 3 -23 3q-28 0 -53 -17q-36 -22 -45 -63q-3 -12 -3 -23q0 -28 16 -53q69 -110 178 -172t233 -62q205 0 350 156q146 156 146 376v860 q0 42 -30 72q-29 29 -71 29t-72 -29q-30 -30 -30 -72v-430q0 -136 -86 -233q-86 -96 -207 -96t-208 96q-86 97 -86 233v430q0 42 -29 72q-30 29 -72 29t-71 -29q-30 -30 -30 -72v-430z" />
<glyph unicode="z" horiz-adv-x="1088" d="M48 962q0 -42 30 -71q29 -30 71 -30h559l-633 -691q-28 -31 -28 -66q0 -21 10 -43q26 -61 92 -61h790q42 0 71 30q30 30 30 72q0 41 -30 71q-29 30 -71 30h-560l634 691q28 30 28 65q0 21 -10 44q-26 60 -92 60h-790q-42 0 -71 -29q-30 -30 -30 -72z" />
<glyph unicode="{" horiz-adv-x="839" d="M102 582q1 -78 77 -96q71 -17 93 -51q27 -41 27 -169v-238q0 -178 68 -250q71 -75 233 -75h38q42 0 72 29q29 30 29 72t-29 71q-30 30 -72 30h-38q-61 0 -85 12q-14 31 -14 111v238q0 188 -60 280q-14 21 -32 40q18 19 32 40q60 91 60 278v237q0 81 14 112q23 11 83 11 q42 0 71 30q30 30 30 71q0 42 -30 72q-29 30 -71 30q-161 0 -231 -76q-68 -73 -68 -250v-237q0 -126 -27 -167q-23 -34 -97 -55q-75 -22 -73 -100z" />
<glyph unicode="|" horiz-adv-x="402" d="M100 -198q0 -42 30 -72q29 -30 71 -30t72 30q29 30 29 72v1562q0 42 -29 71q-30 30 -72 30t-71 -30q-30 -29 -30 -71v-1562z" />
<glyph unicode="}" horiz-adv-x="839" d="M102 -196q0 -42 29 -72q30 -29 72 -29h38q162 0 233 75q68 72 68 250v238q0 128 27 169q22 34 93 51q76 18 77 96q2 78 -73 100q-74 21 -97 55q-27 41 -27 167v237q0 177 -68 250q-70 76 -231 76q-42 0 -71 -30q-30 -30 -30 -72q0 -41 30 -71q29 -30 71 -30q60 0 83 -11 q14 -31 14 -112v-237q0 -187 60 -278q14 -21 32 -40q-18 -19 -32 -40q-60 -92 -60 -280v-238q0 -80 -14 -111q-24 -12 -85 -12h-38q-42 0 -72 -30q-29 -29 -29 -71z" />
<glyph unicode="~" horiz-adv-x="1212" d="M56 1003q-6 -41 13 -76q25 -43 67 -43q26 0 47 18q109 94 185 108q77 14 201 -38l31 -14q151 -65 272 -46q122 20 250 130q29 24 34 65q6 41 -13 76q-19 34 -53 42q-33 7 -60 -17q-96 -82 -179 -95q-84 -13 -196 36l-24 11q-1 0 -2 1l-9 3q-160 67 -275 47 q-114 -21 -255 -143q-28 -24 -34 -65z" />
<glyph unicode="&#xa1;" horiz-adv-x="402" d="M90 961q0 -42 30 -71q30 -30 72 -30h15q42 0 72 30q30 29 30 71t-30 72q-30 29 -72 29h-15q-42 0 -72 -29q-30 -30 -30 -72zM100 -301q0 -42 30 -72q29 -30 71 -30t72 30q29 30 29 72v860q0 42 -29 72q-30 29 -72 29t-71 -29q-30 -30 -30 -72v-860z" />
<glyph unicode="&#xa2;" horiz-adv-x="1049" d="M100 733q0 -211 143 -367q142 -155 349 -175v-101q0 -42 30 -72t72 -30q41 0 71 30t30 72v99q49 0 55 1q42 2 70 33q29 32 26 73q-2 42 -33 70t-72 26q-26 -1 -197 -1q-141 0 -241 100q-101 101 -101 242t101 242q100 100 241 100l196 -1q42 -2 72 26q31 28 33 70 q3 42 -25 73t-70 33q-6 1 -55 1v99q0 42 -30 72q-30 29 -71 29q-42 0 -72 -29q-30 -30 -30 -72v-101q-207 -20 -349 -175q-143 -156 -143 -367z" />
<glyph unicode="&#xa3;" horiz-adv-x="1241" d="M100 101q0 -42 30 -71q29 -30 71 -30h1l507 1q206 0 298 59q134 86 134 325q0 42 -29 71q-30 30 -72 30t-71 -30q-30 -29 -30 -71q0 -122 -38 -152q-37 -30 -192 -30h-265q26 81 26 184v279h108q42 0 72 30q29 29 29 71t-29 72q-30 30 -72 30h-108v17q0 128 41 224 q68 156 230 156q83 0 138 -27q37 -19 77 -6t59 50t6 77t-51 59q-98 50 -229 50q-212 0 -343 -161t-131 -422v-17h-53q-42 0 -71 -30q-30 -30 -30 -72t30 -71q29 -30 71 -30h53v-279q0 -66 -15 -119q-18 -65 -51 -65q-42 -1 -71 -30q-30 -30 -30 -72z" />
<glyph unicode="&#xa4;" horiz-adv-x="1313" d="M100 101q0 -42 30 -72q29 -29 71 -29t72 29l117 118q121 -79 266 -79t266 79l118 -118q29 -29 71 -29t72 29q30 30 30 72t-30 71l-118 118q79 121 79 266t-79 266l118 117q30 30 30 72t-30 71q-30 30 -72 30t-71 -30l-118 -117q-121 79 -266 79t-266 -79l-117 117 q-30 30 -72 30t-71 -30q-30 -29 -30 -71t30 -72l117 -117q-79 -121 -79 -266t79 -266l-117 -118q-30 -29 -30 -71zM371 556q0 118 83 202q84 83 202 83t202 -83q84 -84 84 -202t-84 -202t-202 -84t-202 84q-83 84 -83 202z" />
<glyph unicode="&#xa5;" horiz-adv-x="1352" d="M100 1184q0 -198 103 -341q-44 -30 -44 -83q0 -42 30 -72q30 -29 72 -29h178q64 -27 136 -38v-32h-314q-42 0 -72 -30q-30 -29 -30 -71t30 -72t72 -30h314v-285q0 -42 29 -71q30 -30 72 -30t72 30q29 29 29 71v285h314q42 0 72 30t30 72t-30 71q-30 30 -72 30h-314v32 q71 11 135 38h179q42 0 72 29q30 30 30 72q0 53 -44 83q103 144 103 341v184q0 41 -30 71q-29 30 -71 30t-72 -30q-29 -30 -29 -71v-184q0 -176 -114 -277q-105 -92 -260 -92q-83 0 -157 29q-11 8 -27 13q-190 93 -190 327v184q0 41 -29 71q-30 30 -72 30t-71 -30 q-30 -30 -30 -71v-184z" />
<glyph unicode="&#xa6;" horiz-adv-x="402" d="M100 -238q0 -42 30 -71q29 -30 71 -30t72 30q29 29 29 71v521q0 42 -29 71q-30 30 -72 30t-71 -30q-30 -29 -30 -71v-521zM100 844q0 -42 30 -71q29 -30 71 -30t72 30q29 29 29 71v521q0 41 -29 71q-30 30 -72 30t-71 -30q-30 -30 -30 -71v-521z" />
<glyph unicode="&#xa7;" d="M109 -197q0 -42 30 -72q29 -29 71 -29h515q181 0 309 128q129 128 129 309q0 133 -56 228q56 100 56 213q0 188 -111 299q-93 92 -260 122q-98 17 -293 16h-30l-35 1q-73 0 -103 53q-17 31 -17 70q0 38 17 69q30 53 103 53h517q42 0 71 30q30 30 30 72q0 41 -30 71 q-29 30 -71 30h-517q-150 0 -241 -102q-82 -93 -82 -223q0 -129 80 -221q-91 -105 -78 -251q11 -130 101 -212q89 -82 219 -82l34 -1h33q328 2 409 -79q51 -51 51 -156q0 -97 -69 -166t-166 -69h-515q-42 0 -71 -30q-30 -29 -30 -71zM314 687q-3 39 13 73q20 44 66 57 q20 -2 40 -2h34h33q328 1 409 -80q51 -51 51 -155q0 -36 -10 -69q-134 66 -416 66h-35h-30h-35q-110 0 -120 110z" />
<glyph unicode="&#xa8;" horiz-adv-x="819" d="M50 1272q0 -42 30 -71q30 -30 72 -30h15q42 0 72 30q30 29 30 71t-30 72q-30 29 -72 29h-15q-42 0 -72 -29q-30 -30 -30 -72zM550 1272q0 -42 30 -71q30 -30 72 -30h15q42 0 72 30q30 29 30 71t-30 72q-30 29 -72 29h-15q-42 0 -72 -29q-30 -30 -30 -72z" />
<glyph unicode="&#xa9;" horiz-adv-x="1565" d="M50 732q0 -302 215 -517t517 -215q303 0 518 215t215 517q0 303 -215 518t-518 215q-302 0 -517 -215t-215 -518zM158 732q0 259 183 442t441 183q259 0 442 -183q182 -183 182 -442q0 -258 -182 -441q-183 -183 -442 -183q-258 0 -441 183t-183 441zM416 628 q0 -151 107 -259q108 -107 259 -107q88 0 167 40q78 40 130 111q13 19 10 41q-4 22 -22 35t-40 10q-22 -4 -35 -22q-78 -107 -210 -107q-106 0 -182 76q-76 75 -76 182v209q0 107 76 182q76 76 182 76q73 0 135 -38t95 -103q11 -20 32 -27t41 3q20 11 27 32t-3 41 q-48 93 -135 147q-88 53 -192 53q-151 0 -259 -107q-107 -108 -107 -259v-209z" />
<glyph unicode="&#xab;" horiz-adv-x="1410" d="M100 582q0 -46 35 -77l440 -378q28 -25 66 -25q46 0 76 35q28 32 25 74t-35 69l-351 302l351 302q32 27 35 69t-25 74q-27 32 -69 35q-41 3 -73 -25l-440 -378q-35 -31 -35 -77zM665 582q0 -46 35 -77l440 -378q28 -25 66 -25q46 0 76 35q28 32 25 74t-35 69l-351 302 l351 302q32 27 35 69t-25 74q-27 32 -69 35q-41 3 -73 -25l-440 -378q-35 -31 -35 -77z" />
<glyph unicode="&#xac;" horiz-adv-x="1219" d="M50 862q0 -42 30 -72q29 -30 71 -30h816v-375q0 -42 29 -71q30 -30 72 -30t72 30q29 29 29 71v477q0 42 -29 71q-30 30 -72 30h-917q-42 0 -71 -30q-30 -29 -30 -71z" />
<glyph unicode="&#xad;" horiz-adv-x="969" d="M50 727q0 -42 30 -71q29 -30 71 -30h666q42 0 72 30q30 29 30 71t-30 72t-72 30h-666q-42 0 -71 -30q-30 -30 -30 -72z" />
<glyph unicode="&#xae;" horiz-adv-x="1565" d="M50 732q0 -302 215 -517t517 -215q303 0 518 215t215 517q0 303 -215 518t-518 215q-302 0 -517 -215t-215 -518zM158 732q0 259 183 442t441 183q259 0 442 -183q182 -183 182 -442q0 -258 -182 -441q-183 -183 -442 -183q-258 0 -441 183t-183 441zM449 356 q0 -23 16 -39q16 -15 38 -15q23 0 39 15q15 16 15 39v323h255q81 0 138 -57q57 -58 57 -139v-127q0 -23 16 -39q16 -15 39 -15q22 0 38 15q16 16 16 39v127q0 146 -114 237q25 20 45 47q51 73 51 175q0 105 -56 179q-61 82 -163 82h-209q-92 0 -156 -64q-65 -65 -65 -156 v-627zM557 788v195q0 46 33 79t80 33h209q58 0 88 -57q23 -43 23 -96q0 -68 -32 -112q-29 -42 -79 -42h-322z" />
<glyph unicode="&#xaf;" horiz-adv-x="969" d="M50 1362q0 -42 30 -71q29 -30 71 -30h666q42 0 72 30q30 29 30 71t-30 72t-72 30h-666q-42 0 -71 -30q-30 -30 -30 -72z" />
<glyph unicode="&#xb0;" horiz-adv-x="1041" d="M100 1045q0 -173 123 -297q123 -123 297 -123t297 123q124 124 124 297q0 174 -124 297q-123 124 -297 124t-297 -124q-123 -123 -123 -297zM302 1045q0 91 64 154q64 64 154 64t154 -64q64 -63 64 -154q0 -90 -64 -154q-64 -63 -154 -63t-154 63q-64 64 -64 154z" />
<glyph unicode="&#xb1;" horiz-adv-x="1169" d="M50 877q0 -42 30 -71q29 -30 71 -30h332v-332q0 -42 30 -71q29 -30 71 -30t72 30q29 29 29 71v332h332q42 0 72 30q30 29 30 71t-30 72t-72 30h-332v332q0 41 -29 71q-30 30 -72 30t-71 -30q-30 -30 -30 -71v-332h-332q-42 0 -71 -30q-30 -30 -30 -72zM70 141 q0 -42 30 -71q29 -30 71 -30h816q42 0 72 30q30 29 30 71t-30 72t-72 30h-816q-42 0 -71 -30q-30 -30 -30 -72z" />
<glyph unicode="&#xb4;" horiz-adv-x="698" d="M217 1219q5 -42 39 -67q27 -21 61 -21q51 0 81 41l169 200q25 33 19 75q-6 41 -39 66q-34 26 -75 20q-37 -6 -67 -40l-169 -199q-25 -34 -19 -75z" />
<glyph unicode="&#xb5;" horiz-adv-x="1157" d="M100 -304q0 -42 30 -72q29 -29 71 -29t72 29q29 30 29 72v433q101 -62 260 -62q146 2 251 60q3 -144 23 -201q25 -72 90 -103q48 -22 128 -22q42 0 72 30q29 29 29 71t-29 72q-30 30 -72 30q-17 0 -34 1v958q0 42 -29 71q-30 30 -72 30t-72 -30q-29 -29 -29 -71v-452 q-3 -124 -65 -182t-193 -59h-6q-145 0 -195 84q-40 67 -50 267q-4 62 -7 91v251q0 41 -29 71q-30 30 -72 30t-71 -30q-30 -30 -30 -71v-1267z" />
<glyph unicode="&#xb6;" horiz-adv-x="977" d="M50 1014q0 -144 102 -245q101 -102 244 -102h70v-667h143v1259h98v-1259h143v1259h117v144h-571q-143 0 -244 -102q-102 -102 -102 -245v-42z" />
<glyph unicode="&#xb7;" horiz-adv-x="502" d="M100 733q0 -36 25 -61q26 -25 62 -25h12q36 0 62 25q25 25 25 61q0 35 -25 61q-26 25 -62 25h-12q-36 0 -62 -25q-25 -26 -25 -61z" />
<glyph unicode="&#xb8;" horiz-adv-x="527" d="M44 -258q-24 -75 50 -99q78 -29 112.5 -33t79.5 -4q81 0 132 44q58 49 58 138q0 149 -138 182l13 52h-137l-27 -116q-7 -42 24 -65q44 -21 69.5 -20.5t35.5 -8.5t10 -26q0 -16 -10 -24.5t-40 -6.5t-133 36q-74 25 -99 -49z" />
<glyph unicode="&#xbb;" horiz-adv-x="1410" d="M100 211q-3 -42 25 -74q30 -35 76 -35q38 0 66 25l440 378q35 31 35 77t-35 77l-440 378q-32 28 -73 25q-42 -3 -69 -35q-28 -32 -25 -74t35 -69l351 -302l-351 -302q-32 -27 -35 -69zM665 211q-3 -42 25 -74q30 -35 76 -35q38 0 66 25l440 378q35 31 35 77t-35 77 l-440 378q-32 28 -73 25q-42 -3 -69 -35q-28 -32 -25 -74t35 -69l351 -302l-351 -302q-32 -27 -35 -69z" />
<glyph unicode="&#xbf;" horiz-adv-x="1081" d="M100 38q0 -182 129 -312q129 -129 312 -129q182 0 311 129q129 130 129 312q0 135 -75 246q-24 35 -65 43t-76 -16q-35 -23 -43 -64q-7 -42 16 -76q41 -60 41 -133q0 -99 -70 -169q-70 -69 -168 -69q-99 0 -169 69q-69 70 -69 169q0 98 69 168q70 70 169 70q42 0 71 29 q30 30 30 72v255q0 42 -30 72q-29 30 -71 30t-72 -30t-30 -72v-166q-147 -34 -242 -153q-97 -121 -97 -275zM429 961q0 -42 30 -72q30 -29 72 -29h15q42 0 72 29q30 30 30 72t-30 71q-30 30 -72 30h-15q-42 0 -72 -30q-30 -29 -30 -71z" />
<glyph unicode="&#xc0;" horiz-adv-x="1337" d="M100 101q0 -41 30 -71q29 -30 71 -30t72 30q29 30 29 71v459h732v-459q0 -41 30 -71q29 -30 71 -30t72 30t30 71v746q0 256 -167 437t-402 181t-401 -181q-167 -181 -167 -437v-746zM302 762v85q0 172 108 294q107 122 258 122q152 0 259 -122t107 -294v-85h-732z M422 1850q-6 -42 19 -75l169 -200q30 -41 81 -41q34 0 61 21q34 25 39 67q6 41 -19 75l-169 199q-30 34 -67 40q-41 6 -75 -20q-33 -25 -39 -66z" />
<glyph unicode="&#xc1;" horiz-adv-x="1337" d="M100 101q0 -41 30 -71q29 -30 71 -30t72 30q29 30 29 71v459h732v-459q0 -41 30 -71q29 -30 71 -30t72 30t30 71v746q0 256 -167 437t-402 181t-401 -181q-167 -181 -167 -437v-746zM302 762v85q0 172 108 294q107 122 258 122q152 0 259 -122t107 -294v-85h-732z M546 1622q5 -42 39 -67q27 -21 61 -21q51 0 81 41l169 200q25 33 19 75q-6 41 -39 66q-34 26 -75 20q-37 -6 -67 -40l-169 -199q-25 -34 -19 -75z" />
<glyph unicode="&#xc2;" horiz-adv-x="1337" d="M100 101q0 -41 30 -71q29 -30 71 -30t72 30q29 30 29 71v459h732v-459q0 -41 30 -71q29 -30 71 -30t72 30t30 71v746q0 256 -167 437t-402 181t-401 -181q-167 -181 -167 -437v-746zM302 762v85q0 172 108 294q107 122 258 122q152 0 259 -122t107 -294v-85h-732z M324 1659q-11 -40 10 -76q20 -36 60 -47q41 -11 77 9l197 119l197 -119q36 -20 77 -9q40 11 60 47q21 36 10 76q-12 40 -48 60l-247 136q-24 14 -49 14t-49 -14l-247 -136q-36 -20 -48 -60z" />
<glyph unicode="&#xc3;" horiz-adv-x="1337" d="M100 101q0 -41 30 -71q29 -30 71 -30t72 30q29 30 29 71v459h732v-459q0 -41 30 -71q29 -30 71 -30t72 30t30 71v746q0 256 -167 437t-402 181t-401 -181q-167 -181 -167 -437v-746zM302 762v85q0 172 108 294q107 122 258 122q152 0 259 -122t107 -294v-85h-732z M346 1651q-6 -41 13 -76q24 -43 66 -43q26 0 47 18q49 43 79 48q30 6 86 -18l15 -6q164 -73 306 49q27 24 32 65q7 42 -12 76q-20 35 -52 42q-34 7 -61 -17q-42 -36 -75 -41q-35 -5 -84 17l-12 5q-2 0 -2 1l-4 1q-91 39 -160 27q-69 -13 -149 -83q-27 -24 -33 -65z" />
<glyph unicode="&#xc4;" horiz-adv-x="1337" d="M100 101q0 -41 30 -71q29 -30 71 -30t72 30q29 30 29 71v459h732v-459q0 -41 30 -71q29 -30 71 -30t72 30t30 71v746q0 256 -167 437t-402 181t-401 -181q-167 -181 -167 -437v-746zM302 762v85q0 172 108 294q107 122 258 122q152 0 259 -122t107 -294v-85h-732z M309 1675q0 -42 30 -71q30 -30 72 -30h15q42 0 72 30q30 29 30 71t-30 72q-30 29 -72 29h-15q-42 0 -72 -29q-30 -30 -30 -72zM809 1675q0 -42 30 -71q30 -30 72 -30h15q42 0 72 30q30 29 30 71t-30 72q-30 29 -72 29h-15q-42 0 -72 -29q-30 -30 -30 -72z" />
<glyph unicode="&#xc5;" horiz-adv-x="1337" d="M100 101q0 -41 30 -71q29 -30 71 -30t72 30q29 30 29 71v459h732v-459q0 -41 30 -71q29 -30 71 -30t72 30t30 71v746q0 256 -167 437t-402 181t-401 -181q-167 -181 -167 -437v-746zM302 762v85q0 172 108 294q107 122 258 122q152 0 259 -122t107 -294v-85h-732z M451 1683q0 -91 64 -154q64 -65 154 -65q91 0 154 65q64 63 64 154q0 90 -64 154q-63 64 -154 64q-90 0 -154 -64t-64 -154zM602 1683q0 27 20 46q19 20 47 20t47 -20q20 -19 20 -46q0 -28 -20 -47q-19 -20 -47 -20t-47 20q-20 19 -20 47z" />
<glyph unicode="&#xc6;" horiz-adv-x="2302" d="M100 101q0 -42 30 -71q29 -30 71 -30t72 30q29 29 29 71v537h748v-537q0 -42 29 -71q30 -30 72 -30h949q42 0 72 30q30 29 30 71t-30 72t-72 30h-848v435h589q42 0 71 30q30 30 30 72t-30 71q-29 30 -71 30h-589v425h848q42 0 72 30t30 72q0 41 -30 71t-72 30h-949 q-42 0 -72 -30q-29 -30 -29 -71v-37q-162 138 -374 138q-238 0 -407 -169t-169 -407v-792zM302 841v52q0 154 110 264q110 109 264 109q155 0 264 -109q110 -110 110 -264v-52h-748z" />
<glyph unicode="&#xc7;" horiz-adv-x="1485" d="M100 733q0 -303 215 -518q214 -215 517 -215q308 0 523 220q30 30 29 72q0 42 -30 71q-30 30 -72 29q-42 0 -71 -30q-156 -159 -379 -159q-219 0 -374 155q-156 156 -156 375t156 374q155 156 374 156q223 0 379 -160q29 -30 71 -30t72 29t31 71q0 42 -29 72 q-216 220 -524 220q-303 0 -517 -215q-215 -214 -215 -517zM529 -258q-24 -75 50 -99q78 -29 112.5 -33t79.5 -4q81 0 132 44q58 49 58 138q0 149 -138 182l13 52h-137l-27 -116q-7 -42 24 -65q44 -21 69.5 -20.5t35.5 -8.5t10 -26q0 -16 -10 -24.5t-40 -6.5t-133 36 q-74 25 -99 -49z" />
<glyph unicode="&#xc8;" horiz-adv-x="1023" d="M100 532q0 -220 156 -376t376 -156h189q42 0 72 30t30 72q0 41 -30 71t-72 30h-189q-137 0 -233 96q-97 97 -97 233v77h444q42 0 72 29q30 30 30 72t-30 72q-30 29 -72 29h-444v122q0 137 97 233q96 97 233 97h189q42 0 72 29q30 30 30 72t-30 71q-30 30 -72 30h-189 q-220 0 -376 -156t-156 -376v-401zM265 1850q-6 -42 19 -75l169 -200q30 -41 81 -41q34 0 61 21q34 25 39 67q6 41 -19 75l-169 199q-30 34 -67 40q-41 6 -75 -20q-33 -25 -39 -66z" />
<glyph unicode="&#xc9;" horiz-adv-x="1023" d="M100 532q0 -220 156 -376t376 -156h189q42 0 72 30t30 72q0 41 -30 71t-72 30h-189q-137 0 -233 96q-97 97 -97 233v77h444q42 0 72 29q30 30 30 72t-30 72q-30 29 -72 29h-444v122q0 137 97 233q96 97 233 97h189q42 0 72 29q30 30 30 72t-30 71q-30 30 -72 30h-189 q-220 0 -376 -156t-156 -376v-401zM389 1622q5 -42 39 -67q27 -21 61 -21q51 0 81 41l169 200q25 33 19 75q-6 41 -39 66q-34 26 -75 20q-37 -6 -67 -40l-169 -199q-25 -34 -19 -75z" />
<glyph unicode="&#xca;" horiz-adv-x="1023" d="M100 532q0 -220 156 -376t376 -156h189q42 0 72 30t30 72q0 41 -30 71t-72 30h-189q-137 0 -233 96q-97 97 -97 233v77h444q42 0 72 29q30 30 30 72t-30 72q-30 29 -72 29h-444v122q0 137 97 233q96 97 233 97h189q42 0 72 29q30 30 30 72t-30 71q-30 30 -72 30h-189 q-220 0 -376 -156t-156 -376v-401zM268 1659q-11 -40 10 -76q20 -36 60 -47q41 -11 77 9l197 119l197 -119q36 -20 77 -9q40 11 60 47q21 36 10 76q-12 40 -48 60l-247 136q-24 14 -49 14t-49 -14l-247 -136q-36 -20 -48 -60z" />
<glyph unicode="&#xcb;" horiz-adv-x="1023" d="M100 532q0 -220 156 -376t376 -156h189q42 0 72 30t30 72q0 41 -30 71t-72 30h-189q-137 0 -233 96q-97 97 -97 233v77h444q42 0 72 29q30 30 30 72t-30 72q-30 29 -72 29h-444v122q0 137 97 233q96 97 233 97h189q42 0 72 29q30 30 30 72t-30 71q-30 30 -72 30h-189 q-220 0 -376 -156t-156 -376v-401zM152 1675q0 -42 30 -71q30 -30 72 -30h15q42 0 72 30q30 29 30 71t-30 72q-30 29 -72 29h-15q-42 0 -72 -29q-30 -30 -30 -72zM652 1675q0 -42 30 -71q30 -30 72 -30h15q42 0 72 30q30 29 30 71t-30 72q-30 29 -72 29h-15q-42 0 -72 -29 q-30 -30 -30 -72z" />
<glyph unicode="&#xcc;" horiz-adv-x="397" d="M-45 1850q-6 -42 19 -75l169 -200q30 -41 81 -41q34 0 61 21q34 25 39 67q6 41 -19 75l-169 199q-30 34 -67 40q-41 6 -75 -20q-33 -25 -39 -66zM100 102q0 -42 30 -72q29 -30 71 -30t72 30q29 30 29 72v1262q0 42 -29 71q-30 30 -72 30t-71 -30q-30 -29 -30 -71v-1262z " />
<glyph unicode="&#xcd;" horiz-adv-x="374" d="M78 1622q5 -42 39 -67q27 -21 61 -21q51 0 81 41l169 200q25 33 19 75q-6 41 -39 66q-34 26 -75 20q-37 -6 -67 -40l-169 -199q-25 -34 -19 -75zM100 102q0 -42 30 -72q29 -30 71 -30t72 30q29 30 29 72v1262q0 42 -29 71q-30 30 -72 30t-71 -30q-30 -29 -30 -71v-1262z " />
<glyph unicode="&#xce;" horiz-adv-x="431" d="M-143 1659q-11 -40 10 -76q20 -36 60 -47q41 -11 77 9l197 119l197 -119q36 -20 77 -9q40 11 60 47q21 36 10 76q-12 40 -48 60l-247 136q-24 14 -49 14t-49 -14l-247 -136q-36 -20 -48 -60zM100 102q0 -42 30 -72q29 -30 71 -30t72 30q29 30 29 72v1262q0 42 -29 71 q-30 30 -72 30t-71 -30q-30 -29 -30 -71v-1262z" />
<glyph unicode="&#xcf;" horiz-adv-x="397" d="M-158 1675q0 -42 30 -71q30 -30 72 -30h15q42 0 72 30q30 29 30 71t-30 72q-30 29 -72 29h-15q-42 0 -72 -29q-30 -30 -30 -72zM100 102q0 -42 30 -72q29 -30 71 -30t72 30q29 30 29 72v1262q0 42 -29 71q-30 30 -72 30t-71 -30q-30 -29 -30 -71v-1262zM342 1675 q0 -42 30 -71q30 -30 72 -30h15q42 0 72 30q30 29 30 71t-30 72q-30 29 -72 29h-15q-42 0 -72 -29q-30 -30 -30 -72z" />
<glyph unicode="&#xd0;" horiz-adv-x="1446" d="M10 734q0 -42 30 -71q29 -30 71 -30h82v-532q0 -42 30 -71q30 -30 72 -30h474q239 0 408 169t169 407v317q0 238 -169 407t-408 169h-474q-42 0 -72 -30t-30 -71v-532h-82q-42 0 -71 -30q-30 -30 -30 -72zM396 203v430h98q42 0 72 30q29 29 29 71t-29 72q-30 30 -72 30 h-98v430h373q155 0 265 -109q109 -110 109 -264v-317q0 -154 -109 -264q-110 -109 -265 -109h-373z" />
<glyph unicode="&#xd1;" horiz-adv-x="1313" d="M100 102q0 -42 30 -72q29 -30 71 -30t72 30q29 30 29 72v766q1 163 104 279q104 116 250 116q147 0 250 -116q104 -116 104 -279v-766q0 -42 30 -72q29 -30 71 -30t72 30t30 72v766q0 247 -164 422q-163 175 -393 175q-199 0 -354 -137v36q0 42 -29 71q-30 30 -72 30 t-71 -30q-30 -29 -30 -71v-1262zM334 1651q-6 -41 13 -76q24 -43 66 -43q26 0 47 18q49 43 79 48q30 6 86 -18l15 -6q164 -73 306 49q27 24 32 65q7 42 -12 76q-20 35 -52 42q-34 7 -61 -17q-42 -36 -75 -41q-35 -5 -84 17l-12 5q-2 0 -2 1l-4 1q-91 39 -160 27 q-69 -13 -149 -83q-27 -24 -33 -65z" />
<glyph unicode="&#xd2;" horiz-adv-x="1665" d="M100 733q0 -303 215 -518q214 -215 517 -215t518 215t215 518t-215 517q-215 215 -518 215t-517 -215q-215 -214 -215 -517zM302 733q0 219 156 374q155 156 374 156q220 0 375 -156q155 -155 155 -374t-155 -375q-155 -155 -375 -155q-219 0 -374 155q-156 156 -156 375 zM586 1850q-6 -42 19 -75l169 -200q30 -41 81 -41q34 0 61 21q34 25 39 67q6 41 -19 75l-169 199q-30 34 -67 40q-41 6 -75 -20q-33 -25 -39 -66z" />
<glyph unicode="&#xd3;" horiz-adv-x="1665" d="M100 733q0 -303 215 -518q214 -215 517 -215t518 215t215 518t-215 517q-215 215 -518 215t-517 -215q-215 -214 -215 -517zM302 733q0 219 156 374q155 156 374 156q220 0 375 -156q155 -155 155 -374t-155 -375q-155 -155 -375 -155q-219 0 -374 155q-156 156 -156 375 zM710 1622q5 -42 39 -67q27 -21 61 -21q51 0 81 41l169 200q25 33 19 75q-6 41 -39 66q-34 26 -75 20q-37 -6 -67 -40l-169 -199q-25 -34 -19 -75z" />
<glyph unicode="&#xd4;" horiz-adv-x="1665" d="M100 733q0 -303 215 -518q214 -215 517 -215t518 215t215 518t-215 517q-215 215 -518 215t-517 -215q-215 -214 -215 -517zM302 733q0 219 156 374q155 156 374 156q220 0 375 -156q155 -155 155 -374t-155 -375q-155 -155 -375 -155q-219 0 -374 155q-156 156 -156 375 zM489 1659q-11 -40 10 -76q20 -36 60 -47q41 -11 77 9l197 119l197 -119q36 -20 77 -9q40 11 60 47q21 36 10 76q-12 40 -48 60l-247 136q-24 14 -49 14t-49 -14l-247 -136q-36 -20 -48 -60z" />
<glyph unicode="&#xd5;" horiz-adv-x="1665" d="M100 733q0 -303 215 -518q214 -215 517 -215t518 215t215 518t-215 517q-215 215 -518 215t-517 -215q-215 -214 -215 -517zM302 733q0 219 156 374q155 156 374 156q220 0 375 -156q155 -155 155 -374t-155 -375q-155 -155 -375 -155q-219 0 -374 155q-156 156 -156 375 zM510 1651q-6 -41 13 -76q24 -43 66 -43q26 0 47 18q49 43 79 48q30 6 86 -18l15 -6q164 -73 306 49q27 24 32 65q7 42 -12 76q-20 35 -52 42q-34 7 -61 -17q-42 -36 -75 -41q-35 -5 -84 17l-12 5q-2 0 -2 1l-4 1q-91 39 -160 27q-69 -13 -149 -83q-27 -24 -33 -65z" />
<glyph unicode="&#xd6;" horiz-adv-x="1665" d="M100 733q0 -303 215 -518q214 -215 517 -215t518 215t215 518t-215 517q-215 215 -518 215t-517 -215q-215 -214 -215 -517zM302 733q0 219 156 374q155 156 374 156q220 0 375 -156q155 -155 155 -374t-155 -375q-155 -155 -375 -155q-219 0 -374 155q-156 156 -156 375 zM473 1675q0 -42 30 -71q30 -30 72 -30h15q42 0 72 30q30 29 30 71t-30 72q-30 29 -72 29h-15q-42 0 -72 -29q-30 -30 -30 -72zM973 1675q0 -42 30 -71q30 -30 72 -30h15q42 0 72 30q30 29 30 71t-30 72q-30 29 -72 29h-15q-42 0 -72 -29q-30 -30 -30 -72z" />
<glyph unicode="&#xd7;" horiz-adv-x="1304" d="M100 278q0 -42 30 -72q29 -30 71 -30t72 30l379 380l380 -380q29 -30 71 -30t72 30q29 30 29 72t-29 71l-380 380l380 379q29 30 29 72t-29 71q-30 30 -72 30t-71 -30l-380 -379l-379 379q-30 30 -72 30t-71 -30q-30 -29 -30 -71t30 -72l379 -379l-379 -380 q-30 -29 -30 -71z" />
<glyph unicode="&#xd8;" horiz-adv-x="1362" d="M105 576q0 -172 94 -315l-74 -99q-25 -33 -19 -75q6 -41 39 -67q27 -20 61 -20q51 0 81 41l53 71q152 -112 341 -112q238 0 407 169t169 407v317q0 172 -94 315l74 99q25 33 19 75q-6 41 -40 66q-33 26 -75 20q-41 -6 -66 -40l-54 -71q-151 112 -340 112 q-238 0 -407 -169t-169 -407v-317zM307 576v317q0 154 110 264q109 109 264 109q121 0 219 -71l-567 -756q-26 66 -26 137zM462 274l567 755q26 -65 26 -136v-317q0 -154 -110 -264q-110 -109 -264 -109q-121 0 -219 71z" />
<glyph unicode="&#xd9;" horiz-adv-x="1313" d="M100 598q0 -245 160 -420q163 -178 396 -178q230 0 393 175q164 176 164 423v766q0 42 -30 71q-30 30 -72 30t-71 -30q-30 -29 -30 -71v-766q0 -164 -104 -279q-103 -116 -250 -116q-144 0 -247 112q-107 117 -107 283v766q0 42 -29 71q-30 30 -72 30t-71 -30 q-30 -29 -30 -71v-766zM410 1850q-6 -42 19 -75l169 -200q30 -41 81 -41q34 0 61 21q34 25 39 67q6 41 -19 75l-169 199q-30 34 -67 40q-41 6 -75 -20q-33 -25 -39 -66z" />
<glyph unicode="&#xda;" horiz-adv-x="1313" d="M100 598q0 -245 160 -420q163 -178 396 -178q230 0 393 175q164 176 164 423v766q0 42 -30 71q-30 30 -72 30t-71 -30q-30 -29 -30 -71v-766q0 -164 -104 -279q-103 -116 -250 -116q-144 0 -247 112q-107 117 -107 283v766q0 42 -29 71q-30 30 -72 30t-71 -30 q-30 -29 -30 -71v-766zM534 1622q5 -42 39 -67q27 -21 61 -21q51 0 81 41l169 200q25 33 19 75q-6 41 -39 66q-34 26 -75 20q-37 -6 -67 -40l-169 -199q-25 -34 -19 -75z" />
<glyph unicode="&#xdb;" horiz-adv-x="1313" d="M100 598q0 -245 160 -420q163 -178 396 -178q230 0 393 175q164 176 164 423v766q0 42 -30 71q-30 30 -72 30t-71 -30q-30 -29 -30 -71v-766q0 -164 -104 -279q-103 -116 -250 -116q-144 0 -247 112q-107 117 -107 283v766q0 42 -29 71q-30 30 -72 30t-71 -30 q-30 -29 -30 -71v-766zM313 1659q-11 -40 10 -76q20 -36 60 -47q41 -11 77 9l197 119l197 -119q36 -20 77 -9q40 11 60 47q21 36 10 76q-12 40 -48 60l-247 136q-24 14 -49 14t-49 -14l-247 -136q-36 -20 -48 -60z" />
<glyph unicode="&#xdc;" horiz-adv-x="1313" d="M100 598q0 -245 160 -420q163 -178 396 -178q230 0 393 175q164 176 164 423v766q0 42 -30 71q-30 30 -72 30t-71 -30q-30 -29 -30 -71v-766q0 -164 -104 -279q-103 -116 -250 -116q-144 0 -247 112q-107 117 -107 283v766q0 42 -29 71q-30 30 -72 30t-71 -30 q-30 -29 -30 -71v-766zM297 1675q0 -42 30 -71q30 -30 72 -30h15q42 0 72 30q30 29 30 71t-30 72q-30 29 -72 29h-15q-42 0 -72 -29q-30 -30 -30 -72zM797 1675q0 -42 30 -71q30 -30 72 -30h15q42 0 72 30q30 29 30 71t-30 72q-30 29 -72 29h-15q-42 0 -72 -29 q-30 -30 -30 -72z" />
<glyph unicode="&#xdd;" horiz-adv-x="1216" d="M100 1114q0 -242 142 -415q110 -134 265 -171v-426q0 -42 29 -72q30 -30 72 -30t72 30q29 30 29 72v427q176 42 290 205q117 165 117 380v250q0 42 -30 71q-29 30 -71 30t-72 -30q-29 -29 -29 -71v-250q0 -163 -90 -279t-216 -116q-121 0 -209 108q-97 118 -97 287v250 q0 42 -29 71q-30 30 -72 30t-71 -30q-30 -29 -30 -71v-250zM485 1622q5 -42 39 -67q27 -21 61 -21q51 0 81 41l169 200q25 33 19 75q-6 41 -39 66q-34 26 -75 20q-37 -6 -67 -40l-169 -199q-25 -34 -19 -75z" />
<glyph unicode="&#xde;" horiz-adv-x="1170" d="M100 101q0 -42 30 -71q29 -30 71 -30t72 30q29 29 29 71v153h176q276 0 442 150q150 137 150 330q0 201 -157 338q-165 143 -435 143h-176v153q0 41 -29 71q-30 30 -72 30t-71 -30q-30 -30 -30 -71v-1267zM302 456v557h176q188 0 295 -89q94 -78 94 -190q0 -111 -94 -189 q-107 -89 -295 -89h-176z" />
<glyph unicode="&#xdf;" horiz-adv-x="1120" d="M124 101v907q-4 67 11 139q26 126 101 207q104 111 277 111q266 0 353 -164q32 -60 30 -132q-3 -103 -77 -214q-80 -120 -77 -146q5 -29 116 -114q88 -66 126 -107q66 -69 86 -145q15 -55 15 -125q0 -120 -75 -208q-74 -87 -192 -106q-122 -19 -231 50q-123 78 -176 242 q-13 40 6 77q19 38 59 51q40 12 78 -7q37 -19 50 -59q28 -89 84 -129q46 -33 99 -25q38 6 64 32q32 32 32 82q0 43 -8 73q-13 48 -139 143q-86 66 -122 105q-61 67 -72 141q-9 65 23 140q23 54 86 148q61 92 37 138q-30 57 -175 57q-85 0 -129 -47q-35 -38 -50 -107 q-8 -48 -8 -91v-917q0 -42 -30 -71q-29 -30 -71 -30t-72 30q-29 29 -29 71z" />
<glyph unicode="&#xe0;" d="M100 532q0 -220 156 -376t376 -156q133 0 250 63q37 20 49 60t-8 77q-19 37 -59 49q-41 12 -78 -8q-72 -38 -154 -38q-137 0 -233 96q-97 97 -97 233t97 232q96 97 233 97q136 0 232 -97q97 -96 97 -232v-430q0 -42 29 -72q30 -30 72 -30t71 30q30 30 30 72v430 q0 220 -156 376q-156 155 -375 155q-220 0 -376 -155q-156 -156 -156 -376zM385 1447q-6 -42 19 -75l169 -200q30 -41 81 -41q34 0 61 21q34 25 39 67q6 41 -19 75l-169 199q-30 34 -67 40q-41 6 -75 -20q-33 -25 -39 -66z" />
<glyph unicode="&#xe1;" d="M100 532q0 -220 156 -376t376 -156q133 0 250 63q37 20 49 60t-8 77q-19 37 -59 49q-41 12 -78 -8q-72 -38 -154 -38q-137 0 -233 96q-97 97 -97 233t97 232q96 97 233 97q136 0 232 -97q97 -96 97 -232v-430q0 -42 29 -72q30 -30 72 -30t71 30q30 30 30 72v430 q0 220 -156 376q-156 155 -375 155q-220 0 -376 -155q-156 -156 -156 -376zM509 1219q5 -42 39 -67q27 -21 61 -21q51 0 81 41l169 200q25 33 19 75q-6 41 -39 66q-34 26 -75 20q-37 -6 -67 -40l-169 -199q-25 -34 -19 -75z" />
<glyph unicode="&#xe2;" d="M100 532q0 -220 156 -376t376 -156q133 0 250 63q37 20 49 60t-8 77q-19 37 -59 49q-41 12 -78 -8q-72 -38 -154 -38q-137 0 -233 96q-97 97 -97 233t97 232q96 97 233 97q136 0 232 -97q97 -96 97 -232v-430q0 -42 29 -72q30 -30 72 -30t71 30q30 30 30 72v430 q0 220 -156 376q-156 155 -375 155q-220 0 -376 -155q-156 -156 -156 -376zM288 1256q-11 -40 10 -76q20 -36 60 -47q41 -11 77 9l197 119l197 -119q36 -20 77 -9q40 11 60 47q21 36 10 76q-12 40 -48 60l-247 136q-24 14 -49 14t-49 -14l-247 -136q-36 -20 -48 -60z" />
<glyph unicode="&#xe3;" d="M100 532q0 -220 156 -376t376 -156q133 0 250 63q37 20 49 60t-8 77q-19 37 -59 49q-41 12 -78 -8q-72 -38 -154 -38q-137 0 -233 96q-97 97 -97 233t97 232q96 97 233 97q136 0 232 -97q97 -96 97 -232v-430q0 -42 29 -72q30 -30 72 -30t71 30q30 30 30 72v430 q0 220 -156 376q-156 155 -375 155q-220 0 -376 -155q-156 -156 -156 -376zM309 1248q-6 -41 13 -76q24 -43 66 -43q26 0 47 18q49 43 79 48q30 6 86 -18l15 -6q164 -73 306 49q27 24 32 65q7 42 -12 76q-20 35 -52 42q-34 7 -61 -17q-42 -36 -75 -41q-35 -5 -84 17l-12 5 q-2 0 -2 1l-4 1q-91 39 -160 27q-69 -13 -149 -83q-27 -24 -33 -65z" />
<glyph unicode="&#xe4;" d="M100 532q0 -220 156 -376t376 -156q133 0 250 63q37 20 49 60t-8 77q-19 37 -59 49q-41 12 -78 -8q-72 -38 -154 -38q-137 0 -233 96q-97 97 -97 233t97 232q96 97 233 97q136 0 232 -97q97 -96 97 -232v-430q0 -42 29 -72q30 -30 72 -30t71 30q30 30 30 72v430 q0 220 -156 376q-156 155 -375 155q-220 0 -376 -155q-156 -156 -156 -376zM272 1272q0 -42 30 -71q30 -30 72 -30h15q42 0 72 30q30 29 30 71t-30 72q-30 29 -72 29h-15q-42 0 -72 -29q-30 -30 -30 -72zM772 1272q0 -42 30 -71q30 -30 72 -30h15q42 0 72 30q30 29 30 71 t-30 72q-30 29 -72 29h-15q-42 0 -72 -29q-30 -30 -30 -72z" />
<glyph unicode="&#xe5;" d="M100 532q0 -220 156 -376t376 -156q133 0 250 63q37 20 49 60t-8 77q-19 37 -59 49q-41 12 -78 -8q-72 -38 -154 -38q-137 0 -233 96q-97 97 -97 233t97 232q96 97 233 97q136 0 232 -97q97 -96 97 -232v-430q0 -42 29 -72q30 -30 72 -30t71 30q30 30 30 72v430 q0 220 -156 376q-156 155 -375 155q-220 0 -376 -155q-156 -156 -156 -376zM414 1314q0 -91 64 -154q64 -65 154 -65q91 0 154 65q64 63 64 154q0 90 -64 154q-63 64 -154 64q-90 0 -154 -64t-64 -154zM565 1314q0 27 20 46q19 20 47 20t47 -20q20 -19 20 -46q0 -28 -20 -47 q-19 -20 -47 -20t-47 20q-20 19 -20 47z" />
<glyph unicode="&#xe6;" horiz-adv-x="2175" d="M100 544q0 -225 160 -384q159 -160 384 -160q193 0 342 122v-21q0 -42 30 -71q30 -30 72 -30q41 0 71 30q30 29 30 71v20q149 -121 342 -121q200 0 354 132t184 330q6 41 -19 75t-66 40t-75 -18q-34 -25 -40 -67q-19 -124 -116 -207q-97 -82 -222 -82q-142 0 -242 100 t-100 241q0 142 100 242t242 100q134 0 233 -91l-381 -221q-37 -21 -48 -61q-10 -41 10 -77q21 -36 62 -47q40 -11 77 10l482 278q36 21 47 62q11 40 -10 77q-73 126 -200 199q-127 74 -272 74q-280 0 -443 -229q-164 229 -444 229q-225 0 -384 -160q-160 -159 -160 -385z M302 544q0 142 101 242q100 100 241 100q142 0 242 -100t100 -242v-215q-58 17 -100 -26q-101 -100 -242 -100t-241 100q-101 100 -101 241z" />
<glyph unicode="&#xe7;" horiz-adv-x="1135" d="M100 532q0 -220 156 -376q115 -115 265 -145l-24 -105q-7 -42 24 -65q44 -21 69.5 -20.5t35.5 -8.5t10 -26q0 -16 -10 -24.5t-40 -6.5t-133 36q-74 25 -99 -49q-24 -75 50 -99q78 -29 112.5 -33t79.5 -4q81 0 132 44q58 49 58 138q0 149 -138 182l8 30q202 8 349 153 q30 30 30 72t-29 71q-30 30 -72 31q-42 0 -71 -29q-96 -95 -231 -95q-137 0 -233 96q-97 97 -97 233t97 232q96 97 233 97q134 0 230 -94q30 -30 72 -29q42 0 71 30q30 30 29 72q0 42 -30 71q-155 152 -372 152q-220 0 -376 -155q-156 -156 -156 -376z" />
<glyph unicode="&#xe8;" horiz-adv-x="1244" d="M100 532q0 -220 156 -376t376 -156q259 0 419 205q26 33 21 75q-6 42 -39 67q-33 26 -74 21q-42 -5 -68 -38q-99 -127 -259 -127q-137 0 -233 96q-97 97 -97 233t97 232q96 97 233 97q158 0 258 -126l-459 -184q-39 -15 -55 -54q-17 -39 -1 -77q25 -64 94 -64q19 0 37 7 l566 227q39 15 55 54q17 39 1 77v1v1q-59 153 -196 247q-137 93 -300 93q-220 0 -376 -155q-156 -156 -156 -376zM371 1447q-6 -42 19 -75l169 -200q30 -41 81 -41q34 0 61 21q34 25 39 67q6 41 -19 75l-169 199q-30 34 -67 40q-41 6 -75 -20q-33 -25 -39 -66z" />
<glyph unicode="&#xe9;" horiz-adv-x="1244" d="M100 532q0 -220 156 -376t376 -156q259 0 419 205q26 33 21 75q-6 42 -39 67q-33 26 -74 21q-42 -5 -68 -38q-99 -127 -259 -127q-137 0 -233 96q-97 97 -97 233t97 232q96 97 233 97q158 0 258 -126l-459 -184q-39 -15 -55 -54q-17 -39 -1 -77q25 -64 94 -64q19 0 37 7 l566 227q39 15 55 54q17 39 1 77v1v1q-59 153 -196 247q-137 93 -300 93q-220 0 -376 -155q-156 -156 -156 -376zM495 1219q5 -42 39 -67q27 -21 61 -21q51 0 81 41l169 200q25 33 19 75q-6 41 -39 66q-34 26 -75 20q-37 -6 -67 -40l-169 -199q-25 -34 -19 -75z" />
<glyph unicode="&#xea;" horiz-adv-x="1244" d="M100 532q0 -220 156 -376t376 -156q259 0 419 205q26 33 21 75q-6 42 -39 67q-33 26 -74 21q-42 -5 -68 -38q-99 -127 -259 -127q-137 0 -233 96q-97 97 -97 233t97 232q96 97 233 97q158 0 258 -126l-459 -184q-39 -15 -55 -54q-17 -39 -1 -77q25 -64 94 -64q19 0 37 7 l566 227q39 15 55 54q17 39 1 77v1v1q-59 153 -196 247q-137 93 -300 93q-220 0 -376 -155q-156 -156 -156 -376zM274 1256q-11 -40 10 -76q20 -36 60 -47q41 -11 77 9l197 119l197 -119q36 -20 77 -9q40 11 60 47q21 36 10 76q-12 40 -48 60l-247 136q-24 14 -49 14 t-49 -14l-247 -136q-36 -20 -48 -60z" />
<glyph unicode="&#xeb;" horiz-adv-x="1244" d="M100 532q0 -220 156 -376t376 -156q259 0 419 205q26 33 21 75q-6 42 -39 67q-33 26 -74 21q-42 -5 -68 -38q-99 -127 -259 -127q-137 0 -233 96q-97 97 -97 233t97 232q96 97 233 97q158 0 258 -126l-459 -184q-39 -15 -55 -54q-17 -39 -1 -77q25 -64 94 -64q19 0 37 7 l566 227q39 15 55 54q17 39 1 77v1v1q-59 153 -196 247q-137 93 -300 93q-220 0 -376 -155q-156 -156 -156 -376zM258 1272q0 -42 30 -71q30 -30 72 -30h15q42 0 72 30q30 29 30 71t-30 72q-30 29 -72 29h-15q-42 0 -72 -29q-30 -30 -30 -72zM758 1272q0 -42 30 -71 q30 -30 72 -30h15q42 0 72 30q30 29 30 71t-30 72q-30 29 -72 29h-15q-42 0 -72 -29q-30 -30 -30 -72z" />
<glyph unicode="&#xec;" horiz-adv-x="431" d="M-45 1447q-6 -42 19 -75l169 -200q30 -41 81 -41q34 0 61 21q34 25 39 67q6 41 -19 75l-169 199q-30 34 -67 40q-41 6 -75 -20q-33 -25 -39 -66zM100 102q0 -42 30 -72q29 -30 71 -30t72 30q29 30 29 72v860q0 42 -29 72q-30 29 -72 29t-71 -29q-30 -30 -30 -72v-860z " />
<glyph unicode="&#xed;" horiz-adv-x="419" d="M78 1219q5 -42 39 -67q27 -21 61 -21q51 0 81 41l169 200q25 33 19 75q-6 41 -39 66q-34 26 -75 20q-37 -6 -67 -40l-169 -199q-25 -34 -19 -75zM100 102q0 -42 30 -72q29 -30 71 -30t72 30q29 30 29 72v860q0 42 -29 72q-30 29 -72 29t-71 -29q-30 -30 -30 -72v-860z " />
<glyph unicode="&#xee;" horiz-adv-x="419" d="M-143 1256q-11 -40 10 -76q20 -36 60 -47q41 -11 77 9l197 119l197 -119q36 -20 77 -9q40 11 60 47q21 36 10 76q-12 40 -48 60l-247 136q-24 14 -49 14t-49 -14l-247 -136q-36 -20 -48 -60zM100 102q0 -42 30 -72q29 -30 71 -30t72 30q29 30 29 72v860q0 42 -29 72 q-30 29 -72 29t-71 -29q-30 -30 -30 -72v-860z" />
<glyph unicode="&#xef;" horiz-adv-x="410" d="M-158 1272q0 -42 30 -71q30 -30 72 -30h15q42 0 72 30q30 29 30 71t-30 72q-30 29 -72 29h-15q-42 0 -72 -29q-30 -30 -30 -72zM100 102q0 -42 30 -72q29 -30 71 -30t72 30q29 30 29 72v860q0 42 -29 72q-30 29 -72 29t-71 -29q-30 -30 -30 -72v-860zM342 1272 q0 -42 30 -71q30 -30 72 -30h15q42 0 72 30q30 29 30 71t-30 72q-30 29 -72 29h-15q-42 0 -72 -29q-30 -30 -30 -72z" />
<glyph unicode="&#xf0;" horiz-adv-x="1192" d="M50 545q0 225 160 384q160 160 385 160q120 0 228 -50q-31 61 -68 116l-45 -28q-36 -22 -76 -12q-41 10 -63 45q-22 36 -12 77t45 63l24 14q-19 30 -15 65t29 61q30 29 72 29t71 -30l18 -18l37 23q36 22 77 12q40 -10 62 -46t12 -76q-10 -41 -45 -63l-19 -11 q173 -267 211 -545q45 -333 -139 -536l-6 -6q-162 -173 -398 -173q-225 0 -385 160q-160 159 -160 385zM253 545q0 -142 100 -242q100 -101 242 -101q92 0 171 47q77 44 123 121q20 34 33 74q15 49 15 101q0 141 -100 241q-101 101 -242 101q-142 0 -242 -101 q-100 -100 -100 -241z" />
<glyph unicode="&#xf1;" horiz-adv-x="1192" d="M100 102q0 -42 30 -72q29 -30 71 -30t72 30q29 30 29 72v430q0 136 87 233q86 96 207 96t207 -97q86 -96 86 -232v-430q0 -42 30 -72t72 -30t71 30q30 30 30 72v430q0 220 -146 376q-145 155 -350 155q-163 0 -294 -103v2q0 42 -29 72q-30 29 -72 29t-71 -29 q-30 -30 -30 -72v-860zM274 1248q-6 -41 13 -76q24 -43 66 -43q26 0 47 18q49 43 79 48q30 6 86 -18l15 -6q164 -73 306 49q27 24 32 65q7 42 -12 76q-20 35 -52 42q-34 7 -61 -17q-42 -36 -75 -41q-35 -5 -84 17l-12 5q-2 0 -2 1l-4 1q-91 39 -160 27q-69 -13 -149 -83 q-27 -24 -33 -65z" />
<glyph unicode="&#xf2;" d="M100 532q0 -220 156 -376t376 -156q219 0 375 156t156 376t-156 376q-156 155 -375 155q-220 0 -376 -155q-156 -156 -156 -376zM302 532q0 136 97 232q96 97 233 97q136 0 232 -97q97 -96 97 -232t-97 -233q-96 -96 -232 -96q-137 0 -233 96q-97 97 -97 233zM385 1447 q-6 -42 19 -75l169 -200q30 -41 81 -41q34 0 61 21q34 25 39 67q6 41 -19 75l-169 199q-30 34 -67 40q-41 6 -75 -20q-33 -25 -39 -66z" />
<glyph unicode="&#xf3;" d="M100 532q0 -220 156 -376t376 -156q219 0 375 156t156 376t-156 376q-156 155 -375 155q-220 0 -376 -155q-156 -156 -156 -376zM302 532q0 136 97 232q96 97 233 97q136 0 232 -97q97 -96 97 -232t-97 -233q-96 -96 -232 -96q-137 0 -233 96q-97 97 -97 233zM509 1219 q5 -42 39 -67q27 -21 61 -21q51 0 81 41l169 200q25 33 19 75q-6 41 -39 66q-34 26 -75 20q-37 -6 -67 -40l-169 -199q-25 -34 -19 -75z" />
<glyph unicode="&#xf4;" d="M100 532q0 -220 156 -376t376 -156q219 0 375 156t156 376t-156 376q-156 155 -375 155q-220 0 -376 -155q-156 -156 -156 -376zM288 1256q-11 -40 10 -76q20 -36 60 -47q41 -11 77 9l197 119l197 -119q36 -20 77 -9q40 11 60 47q21 36 10 76q-12 40 -48 60l-247 136 q-24 14 -49 14t-49 -14l-247 -136q-36 -20 -48 -60zM302 532q0 136 97 232q96 97 233 97q136 0 232 -97q97 -96 97 -232t-97 -233q-96 -96 -232 -96q-137 0 -233 96q-97 97 -97 233z" />
<glyph unicode="&#xf5;" d="M100 532q0 -220 156 -376t376 -156q219 0 375 156t156 376t-156 376q-156 155 -375 155q-220 0 -376 -155q-156 -156 -156 -376zM302 532q0 136 97 232q96 97 233 97q136 0 232 -97q97 -96 97 -232t-97 -233q-96 -96 -232 -96q-137 0 -233 96q-97 97 -97 233zM309 1248 q-6 -41 13 -76q24 -43 66 -43q26 0 47 18q49 43 79 48q30 6 86 -18l15 -6q164 -73 306 49q27 24 32 65q7 42 -12 76q-20 35 -52 42q-34 7 -61 -17q-42 -36 -75 -41q-35 -5 -84 17l-12 5q-2 0 -2 1l-4 1q-91 39 -160 27q-69 -13 -149 -83q-27 -24 -33 -65z" />
<glyph unicode="&#xf6;" d="M100 532q0 -220 156 -376t376 -156q219 0 375 156t156 376t-156 376q-156 155 -375 155q-220 0 -376 -155q-156 -156 -156 -376zM272 1272q0 -42 30 -71q30 -30 72 -30h15q42 0 72 30q30 29 30 71t-30 72q-30 29 -72 29h-15q-42 0 -72 -29q-30 -30 -30 -72zM302 532 q0 136 97 232q96 97 233 97q136 0 232 -97q97 -96 97 -232t-97 -233q-96 -96 -232 -96q-137 0 -233 96q-97 97 -97 233zM772 1272q0 -42 30 -71q30 -30 72 -30h15q42 0 72 30q30 29 30 71t-30 72q-30 29 -72 29h-15q-42 0 -72 -29q-30 -30 -30 -72z" />
<glyph unicode="&#xf7;" horiz-adv-x="969" d="M50 727q0 -42 30 -71q29 -30 71 -30h666q42 0 72 30q30 29 30 71t-30 72t-72 30h-666q-42 0 -71 -30q-30 -30 -30 -72zM375 298q0 -42 30 -71q30 -30 72 -30h15q42 0 72 30q30 29 30 71t-30 72q-30 29 -72 29h-15q-42 0 -72 -29q-30 -30 -30 -72zM375 1158q0 -42 30 -71 q30 -30 72 -30h15q42 0 72 30q30 29 30 71t-30 72q-30 29 -72 29h-15q-42 0 -72 -29q-30 -30 -30 -72z" />
<glyph unicode="&#xf8;" horiz-adv-x="1289" d="M100 544q0 -196 126 -348l-25 -30q-26 -33 -22 -74q4 -42 36 -69q28 -23 64 -23q48 0 78 37l25 30q122 -67 262 -67q226 0 385 160q160 159 160 384q0 197 -127 349l26 30q26 33 22 74q-4 42 -36 69q-33 26 -74 22q-42 -4 -69 -36l-25 -30q-122 67 -262 67 q-225 0 -384 -160q-160 -159 -160 -385zM302 544q0 142 101 242q100 100 241 100q68 0 130 -25l-415 -504q-57 85 -57 187zM515 228l415 504q56 -85 56 -188q0 -141 -100 -241t-242 -100q-67 0 -129 25z" />
<glyph unicode="&#xf9;" horiz-adv-x="1192" d="M100 532q0 -220 145 -376q146 -156 351 -156q162 0 293 104v-2q0 -42 30 -72t72 -30t71 30q30 30 30 72v860q0 42 -30 72q-29 29 -71 29t-72 -29q-30 -30 -30 -72v-430q0 -136 -86 -233q-86 -96 -207 -96t-208 96q-86 97 -86 233v430q0 42 -29 72q-30 29 -72 29t-71 -29 q-30 -30 -30 -72v-430zM350 1447q-6 -42 19 -75l169 -200q30 -41 81 -41q34 0 61 21q34 25 39 67q6 41 -19 75l-169 199q-30 34 -67 40q-41 6 -75 -20q-33 -25 -39 -66z" />
<glyph unicode="&#xfa;" horiz-adv-x="1192" d="M100 532q0 -220 145 -376q146 -156 351 -156q162 0 293 104v-2q0 -42 30 -72t72 -30t71 30q30 30 30 72v860q0 42 -30 72q-29 29 -71 29t-72 -29q-30 -30 -30 -72v-430q0 -136 -86 -233q-86 -96 -207 -96t-208 96q-86 97 -86 233v430q0 42 -29 72q-30 29 -72 29t-71 -29 q-30 -30 -30 -72v-430zM473 1219q5 -42 39 -67q27 -21 61 -21q51 0 81 41l169 200q25 33 19 75q-6 41 -39 66q-34 26 -75 20q-37 -6 -67 -40l-169 -199q-25 -34 -19 -75z" />
<glyph unicode="&#xfb;" horiz-adv-x="1192" d="M100 532q0 -220 145 -376q146 -156 351 -156q162 0 293 104v-2q0 -42 30 -72t72 -30t71 30q30 30 30 72v860q0 42 -30 72q-29 29 -71 29t-72 -29q-30 -30 -30 -72v-430q0 -136 -86 -233q-86 -96 -207 -96t-208 96q-86 97 -86 233v430q0 42 -29 72q-30 29 -72 29t-71 -29 q-30 -30 -30 -72v-430zM252 1256q-11 -40 10 -76q20 -36 60 -47q41 -11 77 9l197 119l197 -119q36 -20 77 -9q40 11 60 47q21 36 10 76q-12 40 -48 60l-247 136q-24 14 -49 14t-49 -14l-247 -136q-36 -20 -48 -60z" />
<glyph unicode="&#xfc;" horiz-adv-x="1192" d="M100 532q0 -220 145 -376q146 -156 351 -156q162 0 293 104v-2q0 -42 30 -72t72 -30t71 30q30 30 30 72v860q0 42 -30 72q-29 29 -71 29t-72 -29q-30 -30 -30 -72v-430q0 -136 -86 -233q-86 -96 -207 -96t-208 96q-86 97 -86 233v430q0 42 -29 72q-30 29 -72 29t-71 -29 q-30 -30 -30 -72v-430zM237 1272q0 -42 30 -71q30 -30 72 -30h15q42 0 72 30q30 29 30 71t-30 72q-30 29 -72 29h-15q-42 0 -72 -29q-30 -30 -30 -72zM737 1272q0 -42 30 -71q30 -30 72 -30h15q42 0 72 30q30 29 30 71t-30 72q-30 29 -72 29h-15q-42 0 -72 -29 q-30 -30 -30 -72z" />
<glyph unicode="&#xfd;" horiz-adv-x="1192" d="M100 533q0 -220 145 -376q146 -156 351 -156q162 0 293 104v-3q0 -136 -86 -232q-86 -97 -207 -97q-152 0 -240 140q-22 35 -63 45q-41 9 -76 -14q-36 -22 -45 -63t13 -76q69 -110 178 -172t233 -62q205 0 350 156q146 156 146 376v860q0 42 -30 72q-29 29 -71 29 t-72 -29q-30 -30 -30 -72v-430q0 -136 -86 -233q-86 -96 -207 -96t-208 96q-86 97 -86 233v430q0 42 -29 72q-30 29 -72 29t-71 -29q-30 -30 -30 -72v-430zM473 1219q5 -42 39 -67q27 -21 61 -21q51 0 81 41l169 200q25 33 19 75q-6 41 -39 66q-34 26 -75 20q-37 -6 -67 -40 l-169 -199q-25 -34 -19 -75z" />
<glyph unicode="&#xfe;" horiz-adv-x="1100" d="M100 -198q0 -42 30 -72q29 -29 71 -29t72 29q29 30 29 72v315q113 -71 248 -71q186 0 318 125q132 126 132 303v218q0 177 -132 302q-132 126 -318 126q-135 0 -248 -71v315q0 41 -29 71q-30 30 -72 30t-71 -30q-30 -30 -30 -71v-1562zM302 473v219q1 93 73 159 q73 66 175 66t175 -66t73 -159v-218q0 -94 -73 -160t-175 -66t-175 66q-72 66 -73 159z" />
<glyph unicode="&#xff;" horiz-adv-x="1192" d="M100 533q0 -220 145 -376q146 -156 351 -156q162 0 293 104v-3q0 -136 -86 -232q-86 -97 -207 -97q-152 0 -240 140q-22 35 -63 45q-41 9 -76 -14q-36 -22 -45 -63t13 -76q69 -110 178 -172t233 -62q205 0 350 156q146 156 146 376v860q0 42 -30 72q-29 29 -71 29 t-72 -29q-30 -30 -30 -72v-430q0 -136 -86 -233q-86 -96 -207 -96t-208 96q-86 97 -86 233v430q0 42 -29 72q-30 29 -72 29t-71 -29q-30 -30 -30 -72v-430zM237 1272q0 -42 30 -71q30 -30 72 -30h15q42 0 72 30q30 29 30 71t-30 72q-30 29 -72 29h-15q-42 0 -72 -29 q-30 -30 -30 -72zM737 1272q0 -42 30 -71q30 -30 72 -30h15q42 0 72 30q30 29 30 71t-30 72q-30 29 -72 29h-15q-42 0 -72 -29q-30 -30 -30 -72z" />
<glyph unicode="&#x152;" horiz-adv-x="2162" d="M50 733q0 -303 215 -518q214 -215 517 -215t518 215q37 37 68 78q38 -74 101 -137q156 -156 376 -156h189q42 0 72 30t30 72q0 41 -30 71t-72 30h-189q-137 0 -233 96q-97 97 -97 233v77h444q42 0 72 29q30 30 30 72t-30 72q-30 29 -72 29h-444v122q0 137 97 233 q96 97 233 97h189q42 0 72 29q30 30 30 72t-30 71q-30 30 -72 30h-189q-220 0 -376 -156q-63 -63 -101 -136q-30 40 -68 77q-215 215 -518 215t-517 -215q-215 -214 -215 -517zM252 733q0 219 156 374q155 156 374 156q220 0 375 -156q155 -155 155 -374t-155 -375 q-155 -155 -375 -155q-219 0 -374 155q-156 156 -156 375z" />
<glyph unicode="&#x153;" horiz-adv-x="2010" d="M60 532q0 -220 156 -376t376 -156q219 0 375 156q31 31 56 64q24 -33 55 -64q156 -156 376 -156q259 0 419 205q26 33 21 75q-6 42 -39 67q-33 26 -74 21q-42 -5 -68 -38q-99 -127 -259 -127q-137 0 -233 96q-97 97 -97 233t97 232q96 97 233 97q158 0 258 -126 l-459 -184q-39 -15 -55 -54q-17 -39 -1 -77q25 -64 94 -64q19 0 37 7l566 227q39 15 55 54q17 39 1 77v2q-59 153 -196 247q-137 93 -300 93q-220 0 -376 -155q-31 -31 -55 -64q-25 33 -56 64q-156 155 -375 155q-220 0 -376 -155q-156 -156 -156 -376zM262 532 q0 136 97 232q96 97 233 97q136 0 232 -97q97 -96 97 -232t-97 -233q-96 -96 -232 -96q-137 0 -233 96q-97 97 -97 233z" />
<glyph unicode="&#x178;" horiz-adv-x="1116" d="M50 1114q0 -242 142 -415q110 -134 265 -171v-426q0 -42 29 -72q30 -30 72 -30t72 30q29 30 29 72v427q176 42 290 205q117 165 117 380v250q0 42 -30 71q-29 30 -71 30t-72 -30q-29 -29 -29 -71v-250q0 -163 -90 -279t-216 -116q-121 0 -209 108q-97 118 -97 287v250 q0 42 -29 71q-30 30 -72 30t-71 -30q-30 -29 -30 -71v-250zM199 1675q0 -42 30 -71q30 -30 72 -30h15q42 0 72 30q30 29 30 71t-30 72q-30 29 -72 29h-15q-42 0 -72 -29q-30 -30 -30 -72zM699 1675q0 -42 30 -71q30 -30 72 -30h15q42 0 72 30q30 29 30 71t-30 72 q-30 29 -72 29h-15q-42 0 -72 -29q-30 -30 -30 -72z" />
<glyph unicode="&#x2c6;" horiz-adv-x="820" d="M66 1256q-11 -40 10 -76q20 -36 60 -47q41 -11 77 9l197 119l197 -119q36 -20 77 -9q40 11 60 47q21 36 10 76q-12 40 -48 60l-247 136q-24 14 -49 14t-49 -14l-247 -136q-36 -20 -48 -60z" />
<glyph unicode="&#x2dc;" horiz-adv-x="757" d="M56 1248q-6 -41 13 -76q24 -43 66 -43q26 0 47 18q49 43 79 48q30 6 86 -18l15 -6q164 -73 306 49q27 24 32 65q7 42 -12 76q-20 35 -52 42q-34 7 -61 -17q-42 -36 -75 -41q-35 -5 -84 17l-12 5q-2 0 -2 1l-4 1q-91 39 -160 27q-69 -13 -149 -83q-27 -24 -33 -65z" />
<glyph unicode="&#x2000;" horiz-adv-x="968" />
<glyph unicode="&#x2001;" horiz-adv-x="1937" />
<glyph unicode="&#x2002;" horiz-adv-x="968" />
<glyph unicode="&#x2003;" horiz-adv-x="1937" />
<glyph unicode="&#x2004;" horiz-adv-x="645" />
<glyph unicode="&#x2005;" horiz-adv-x="484" />
<glyph unicode="&#x2006;" horiz-adv-x="322" />
<glyph unicode="&#x2007;" horiz-adv-x="322" />
<glyph unicode="&#x2008;" horiz-adv-x="242" />
<glyph unicode="&#x2009;" horiz-adv-x="387" />
<glyph unicode="&#x200a;" horiz-adv-x="107" />
<glyph unicode="&#x2010;" horiz-adv-x="969" d="M50 727q0 -42 30 -71q29 -30 71 -30h666q42 0 72 30q30 29 30 71t-30 72t-72 30h-666q-42 0 -71 -30q-30 -30 -30 -72z" />
<glyph unicode="&#x2011;" horiz-adv-x="969" d="M50 727q0 -42 30 -71q29 -30 71 -30h666q42 0 72 30q30 29 30 71t-30 72t-72 30h-666q-42 0 -71 -30q-30 -30 -30 -72z" />
<glyph unicode="&#x2012;" horiz-adv-x="969" d="M50 727q0 -42 30 -71q29 -30 71 -30h666q42 0 72 30q30 29 30 71t-30 72t-72 30h-666q-42 0 -71 -30q-30 -30 -30 -72z" />
<glyph unicode="&#x2013;" horiz-adv-x="937" d="M0 490v129h937v-129h-937z" />
<glyph unicode="&#x2014;" horiz-adv-x="1137" d="M0 490v129h1137v-129h-1137z" />
<glyph unicode="&#x2018;" horiz-adv-x="419" d="M100 1135q0 -42 30 -72q30 -29 72 -29h15q42 0 72 29q30 30 30 72t-30 71q-18 18 -41 25q11 94 56 164q9 19 -4 42t-42.5 25.5t-46.5 -15.5q-109 -176 -111 -305v-7z" />
<glyph unicode="&#x2019;" horiz-adv-x="419" d="M100 1362q0 -42 30 -71q18 -18 41 -25q-11 -94 -56 -164q-9 -19 4 -42t42.5 -25.5t46.5 15.5q109 176 111 305v7q0 42 -30 72q-30 29 -72 29h-15q-42 0 -72 -29q-30 -30 -30 -72z" />
<glyph unicode="&#x201a;" horiz-adv-x="419" d="M100 113q0 -42 30 -71q18 -18 41 -25q-11 -94 -56 -164q-9 -19 4 -42t42.5 -25.5t46.5 15.5q109 176 111 305v7q0 42 -30 72q-30 29 -72 29h-15q-42 0 -72 -29q-30 -30 -30 -72z" />
<glyph unicode="&#x201c;" horiz-adv-x="726" d="M100 1135q0 -42 30 -72q30 -29 72 -29h15q42 0 72 29q30 30 30 72t-30 71q-18 18 -41 25q11 94 56 164q9 19 -4 42t-42.5 25.5t-46.5 -15.5q-109 -176 -111 -305v-7zM407 1135q0 -42 30 -72q30 -29 72 -29h15q42 0 72 29q30 30 30 72t-30 71q-18 18 -41 25q11 94 56 164 q9 19 -4 42t-42.5 25.5t-46.5 -15.5q-109 -176 -111 -305v-7z" />
<glyph unicode="&#x201d;" horiz-adv-x="726" d="M100 1362q0 -42 30 -71q18 -18 41 -25q-11 -94 -56 -164q-9 -19 4 -42t42.5 -25.5t46.5 15.5q109 176 111 305v7q0 42 -30 72q-30 29 -72 29h-15q-42 0 -72 -29q-30 -30 -30 -72zM407 1362q0 -42 30 -71q18 -18 41 -25q-11 -94 -56 -164q-9 -19 4 -42t42.5 -25.5 t46.5 15.5q109 176 111 305v7q0 42 -30 72q-30 29 -72 29h-15q-42 0 -72 -29q-30 -30 -30 -72z" />
<glyph unicode="&#x201e;" horiz-adv-x="726" d="M100 113q0 -42 30 -71q18 -18 41 -25q-11 -94 -56 -164q-9 -19 4 -42t42.5 -25.5t46.5 15.5q109 176 111 305v7q0 42 -30 72q-30 29 -72 29h-15q-42 0 -72 -29q-30 -30 -30 -72zM407 113q0 -42 30 -71q18 -18 41 -25q-11 -94 -56 -164q-9 -19 4 -42t42.5 -25.5t46.5 15.5 q109 176 111 305v7q0 42 -30 72q-30 29 -72 29h-15q-42 0 -72 -29q-30 -30 -30 -72z" />
<glyph unicode="&#x2022;" horiz-adv-x="833" d="M100 704q0 131 92.5 223.5t223.5 92.5q132 0 224.5 -92.5t92.5 -223.5q0 -132 -92.5 -224.5t-224.5 -92.5q-131 0 -223.5 92.5t-92.5 224.5z" />
<glyph unicode="&#x2026;" horiz-adv-x="2048" d="M100 102q0 -42 30 -71q30 -30 72 -30h15q42 0 72 30q30 29 30 71t-30 72q-30 29 -72 29h-15q-42 0 -72 -29q-30 -30 -30 -72zM783 102q0 -42 30 -71q30 -30 72 -30h15q42 0 72 30q30 29 30 71t-30 72q-30 29 -72 29h-15q-42 0 -72 -29q-30 -30 -30 -72zM1466 102 q0 -42 30 -71q30 -30 72 -30h15q42 0 72 30q30 29 30 71t-30 72q-30 29 -72 29h-15q-42 0 -72 -29q-30 -30 -30 -72z" />
<glyph unicode="&#x202f;" horiz-adv-x="387" />
<glyph unicode="&#x2039;" horiz-adv-x="845" d="M100 582q0 -46 35 -77l440 -378q28 -25 66 -25q46 0 76 35q28 32 25 74t-35 69l-351 302l351 302q32 27 35 69t-25 74q-27 32 -69 35q-41 3 -73 -25l-440 -378q-35 -31 -35 -77z" />
<glyph unicode="&#x203a;" horiz-adv-x="845" d="M100 211q-3 -42 25 -74q30 -35 76 -35q38 0 66 25l440 378q35 31 35 77t-35 77l-440 378q-32 28 -73 25q-42 -3 -69 -35q-28 -32 -25 -74t35 -69l351 -302l-351 -302q-32 -27 -35 -69z" />
<glyph unicode="&#x205f;" horiz-adv-x="484" />
<glyph unicode="&#x20ac;" horiz-adv-x="1415" d="M110 503h214q46 -220 166 -353q135 -150 334 -150q141 0 263 76q122 77 183 205l35 72l-144 69l-35 -72q-42 -87 -124 -138q-82 -52 -178 -52q-128 0 -218 100q-80 90 -118 243h432l24 160h-480q-3 35 -3 67t3 67h500l24 160h-499q26 103 71 179q100 164 264 164 q96 0 178 -51q82 -52 124 -139l35 -72l144 69l-35 72q-61 128 -183 205q-122 76 -263 76q-254 0 -400 -241q-69 -113 -100 -262h-214v-160h193q-2 -34 -2 -67t2 -67h-193v-160z" />
<glyph unicode="&#x2122;" horiz-adv-x="1058" d="M-29 1396h176v-520h72v520h176v64h-424v-64zM401 876h72v408l21 -44l21 -53l126 -290h67l126 290l21 53l21 44v-408h72v584h-69l-205 -466l-204 466h-69v-584z" />
<glyph unicode="&#x25fc;" horiz-adv-x="1060" d="M0 0v1060h1060v-1060h-1060z" />
</font>
</defs>
</svg>
